<svg width="76" height="75" viewBox="0 0 76 75" fill="none" xmlns="http://www.w3.org/2000/svg">
<g clip-path="url(#clip0_331_139)">
<rect width="75" height="75" rx="20" fill="#EFF8D4"/>
<path d="M36.5392 12.0382C36.6063 12.0286 36.6752 12.021 36.7442 12.0152C37.5756 11.9462 38.4109 12.1148 39.1715 12.4616C45.8747 15.5249 52.2581 19.3392 58.8579 22.6477C61.4403 24.3278 60.3196 28.144 57.3004 28.28H17.5272C14.7052 28.1728 13.4389 24.8106 15.5635 22.9197C21.761 19.7147 27.8206 16.1647 34.0775 13.0804C34.8054 12.7221 35.7461 12.1455 36.5373 12.0382H36.5392Z" fill="#0E5A67"/>
<path d="M17.6778 54.7378L56.8456 54.7109C61.1982 55.0998 61.5086 61.054 57.2996 61.9391H17.536C13.4478 61.146 13.534 55.4198 17.6797 54.7378H17.6778Z" fill="#0E5A67"/>
<path d="M26.6175 36.7804C26.6175 34.7098 24.9394 33.0312 22.8693 33.0312C20.7992 33.0312 19.1211 34.7098 19.1211 36.7804V46.1887C19.1211 48.2593 20.7992 49.9379 22.8693 49.9379C24.9394 49.9379 26.6175 48.2593 26.6175 46.1887V36.7804Z" fill="#0E5A67"/>
<path d="M41.1487 36.7804C41.1487 34.7098 39.4706 33.0312 37.4005 33.0312C35.3305 33.0312 33.6523 34.7098 33.6523 36.7804V46.1887C33.6523 48.2593 35.3305 49.9379 37.4005 49.9379C39.4706 49.9379 41.1487 48.2593 41.1487 46.1887V36.7804Z" fill="#0E5A67"/>
<path d="M55.5433 36.7804C55.5433 34.7098 53.8651 33.0312 51.7951 33.0312C49.725 33.0312 48.0469 34.7098 48.0469 36.7804V46.1887C48.0469 48.2593 49.725 49.9379 51.7951 49.9379C53.8651 49.9379 55.5433 48.2593 55.5433 46.1887V36.7804Z" fill="#0E5A67"/>
</g>
<defs>
<clipPath id="clip0_331_139">
<rect width="75.5" height="75" rx="20" fill="white"/>
</clipPath>
</defs>
</svg>
