<svg width="75" height="75" viewBox="0 0 75 75" fill="none" xmlns="http://www.w3.org/2000/svg">
<g clip-path="url(#clip0_331_115)">
<path opacity="0.3" d="M76.5837 -1.58008H-1.57422V71.0515H76.5837V-1.58008Z" fill="url(#paint0_linear_331_115)"/>
<path opacity="0.7" d="M109.734 50.168H-17.3711V93.16H109.734V50.168Z" fill="url(#paint1_linear_331_115)"/>
<path d="M27.06 56.0876L27.6091 44.3558C27.6981 43.2474 28.0158 42.1238 28.298 41.0434C30.6469 32.024 34.2567 24.5782 38.0114 16.1003C38.3622 15.2665 38.2275 14.7987 38.197 14.6361C38.0241 13.7489 35.7083 13.6446 35.7083 13.6446C35.7083 13.6446 29.3123 9.07901 28.5802 8.66464C27.6981 8.16893 27.088 8.82226 27.8633 9.38152C28.4582 9.81368 29.5767 10.5941 29.5767 10.5941L29.2894 10.9678C29.1089 11.2017 29.1649 11.5423 29.4115 11.705C29.6225 11.8448 29.9072 11.8092 30.075 11.6211L30.4461 11.2067L33.6924 13.5455L24.7314 12.4193L18.9507 8.52229C18.9507 8.52229 19.2329 8.17402 19.4159 7.88167C19.7184 7.39359 19.1108 7.00211 18.7016 7.45206C18.4677 7.70627 18.2567 8.01895 18.2567 8.01895C18.2567 8.01895 13.6707 4.99639 13.0835 4.65575C12.4556 4.29222 11.5659 5.1362 12.5115 5.83782C13.8589 6.73773 19.8684 10.6144 20.7022 11.461C20.9895 11.7533 21.1293 11.677 20.9818 12.2312C20.7836 12.9735 7.32565 41.9433 7.32565 41.9433H4.42002C3.89635 40.9545 2.86425 40.3367 1.74573 40.3418L-17.3633 40.4105V57.7349L31.1248 57.74C31.5799 57.74 31.951 57.3714 31.951 56.9138C31.951 56.4588 31.5824 56.0876 31.1248 56.0876H27.0651H27.06ZM15.3282 27.4686L16.6323 28.3024L15.3816 30.9742L14.2275 30.0488L15.3257 27.4661L15.3282 27.4686ZM8.69584 44.7956L7.32311 44.9024L10.0127 38.9818L11.1541 39.5385L8.6933 44.793L8.69584 44.7956ZM11.8175 38.4327L10.6609 37.7743L11.7159 35.1483L13.02 35.8092L11.8175 38.4327ZM13.5106 34.7034L12.4785 33.89L13.5792 31.3097L14.863 32.1257L13.5106 34.7034ZM17.1356 27.2474L15.9231 26.373L17.0822 23.6326L18.5058 24.4003L17.1356 27.2474ZM19.0524 23.4114L17.6212 22.4734L18.8922 19.7889L20.2573 20.8312L19.0498 23.4114H19.0524ZM20.7556 19.5804L19.393 18.6297L20.8064 15.8461L22.1309 16.896L20.7556 19.5804ZM22.6723 15.8436L21.1318 14.7962L22.1792 12.5592L23.5519 13.7107L22.6723 15.8461V15.8436Z" fill="#FF5061"/>
<path d="M22.9961 20.129C23.0081 20.1155 22.9976 20.057 23.0606 20L22.9961 20.129Z" fill="#D8765B"/>
<path d="M22.8711 20.3204C22.8816 20.3054 22.8891 20.2514 22.9356 20.1914L22.8711 20.3204Z" fill="#D8765B"/>
<path d="M15.3203 53.019V51.2091C15.3203 49.788 16.6575 49.483 16.6575 51.0108L15.3203 53.019Z" fill="#FEDAD2"/>
<path d="M18.7305 53.019V51.2091C18.7305 49.788 20.0676 49.483 20.0676 51.0108L18.7305 53.019Z" fill="#FEDAD2"/>
<path d="M21.7461 53.019V51.2091C21.7461 49.788 23.0832 49.483 23.0832 51.0108L21.7461 53.019Z" fill="#FEDAD2"/>
<path d="M8.69141 18.8047C8.76259 18.8403 8.76259 18.8784 8.69141 18.914V18.8047Z" fill="#D8765B"/>
<path d="M8.69141 19.2461C8.76259 19.2817 8.76259 19.3198 8.69141 19.3554V19.2461Z" fill="#D8765B"/>
<path d="M73.5758 45.0085H73.4487V36.894H73.9317C74.1682 36.894 74.3588 36.7034 74.3588 36.467C74.3588 36.2306 74.1682 36.0399 73.9317 36.0399H73.4487V32.0691C73.4487 31.8327 73.2581 31.6421 73.0217 31.6421C72.7852 31.6421 72.5946 31.8327 72.5946 32.0691V36.0399H72.1116C71.8752 36.0399 71.6845 36.2306 71.6845 36.467C71.6845 36.7034 71.8752 36.894 72.1116 36.894H72.5946V44.3145C70.2711 39.8353 57.4106 15.0675 56.559 13.8295C56.3455 13.5169 56.1345 13.3109 55.7735 13.1889C54.5533 12.7746 51.8612 12.3856 51.8612 12.3856L56.3531 9.30713L56.9098 10.0774C57.07 10.2985 57.3775 10.357 57.6063 10.207C57.8453 10.0494 57.9114 9.72657 57.7487 9.49016L57.2352 8.73515L60.5908 6.4981C60.9111 6.28456 60.9899 5.84986 60.7662 5.53972C60.5526 5.2423 60.1408 5.16858 59.8383 5.37449L56.437 7.66492L55.9997 7.126C55.8294 6.91501 55.5269 6.87179 55.3032 7.02431C55.0515 7.19718 55.0032 7.54545 55.1939 7.78186L55.6082 8.29028L50.3588 12.0907L47.26 11.6154C47.26 11.6154 47.0541 10.8858 46.8253 10.2757C46.4821 9.3478 45.3992 10.0062 45.3992 10.0062L41.0547 12.5712C41.0547 12.5712 50.4249 33.4851 52.9543 44.35C52.9797 44.4619 53.2822 50.1613 53.2822 50.1613C53.3203 52.1314 53.2314 54.1143 53.2822 56.0819C53.2975 56.6843 53.0788 57.597 53.8923 57.719L94.7287 57.7266V45.0059H73.5682L73.5758 45.0085ZM55.5549 35.8975L54.2787 33.447L55.9184 32.6182L57.0013 35.1807L55.5523 35.8975H55.5549ZM57.6724 36.3475L58.7681 39.0828L57.342 39.5887L56.137 37.0059L57.6699 36.3475H57.6724ZM53.7805 32.2623L52.5298 29.7304L54.1516 29.0135L55.2473 31.4565L53.7779 32.2623H53.7805ZM44.0874 12.2941L45.8313 11.3459L46.4846 12.9805L44.8043 13.7507L44.0874 12.2941ZM45.4042 14.9277L47.0363 14.0888L48.2514 16.5521C48.2234 16.8826 46.9575 17.3656 46.6524 17.5868C46.505 17.5766 45.3407 15.1514 45.4042 14.9277ZM48.2489 21.2143L47.138 18.6519L48.892 17.8257C48.981 18.3697 50.1224 19.9611 49.9876 20.3754C49.9114 20.6093 48.3607 21.2982 48.2489 21.2143ZM50.1097 24.7809C49.9368 24.6741 48.8107 22.46 48.9098 22.3202L50.4935 21.4355C50.7274 21.8143 51.9146 23.8886 51.7417 24.1606C51.3121 24.2445 50.5266 25.0351 50.1122 24.7784L50.1097 24.7809ZM52.4103 25.1622L53.5008 27.7221L51.8663 28.561L50.6588 25.93L52.4128 25.1622H52.4103ZM50.8774 31.8505L54.6575 39.2963L53.9432 41.6097L50.8748 31.8531L50.8774 31.8505ZM54.4948 45.0085L55.7023 41.5003L57.4564 45.0085H54.4948ZM59.7595 44.5712L58.0029 40.7352L59.4316 40.2344L61.1831 44.0221L59.7595 44.5712ZM70.383 45.0085L54.838 15.0294L55.6489 14.5362L71.6006 45.0085H70.383Z" fill="#FF5061"/>
<path d="M60.6803 53.4211C61.5802 53.4211 62.3098 52.6915 62.3098 51.7916C62.3098 50.8917 61.5802 50.1621 60.6803 50.1621C59.7803 50.1621 59.0508 50.8917 59.0508 51.7916C59.0508 52.6915 59.7803 53.4211 60.6803 53.4211Z" fill="#FEDAD2"/>
<path d="M7.3248 53.4211C8.22474 53.4211 8.95429 52.6915 8.95429 51.7916C8.95429 50.8917 8.22474 50.1621 7.3248 50.1621C6.42486 50.1621 5.69531 50.8917 5.69531 51.7916C5.69531 52.6915 6.42486 53.4211 7.3248 53.4211Z" fill="#FEDAD2"/>
</g>
<defs>
<linearGradient id="paint0_linear_331_115" x1="37.5047" y1="-1.58008" x2="37.5047" y2="62.1413" gradientUnits="userSpaceOnUse">
<stop stop-color="#FCA0A0"/>
<stop offset="1" stop-color="#FEF3E8"/>
</linearGradient>
<linearGradient id="paint1_linear_331_115" x1="45.7824" y1="54.8988" x2="46.8425" y2="99.4645" gradientUnits="userSpaceOnUse">
<stop stop-color="#FCA0A0"/>
<stop offset="1" stop-color="#FEF3E8"/>
</linearGradient>
<clipPath id="clip0_331_115">
<rect width="75" height="75" rx="20" fill="white"/>
</clipPath>
</defs>
</svg>
