<svg width="36" height="36" viewBox="0 0 36 36" fill="none" xmlns="http://www.w3.org/2000/svg">
<rect width="35.9453" height="35.9453" rx="10.2701" fill="#FFE6CE"/>
<g clip-path="url(#clip0_334_256)">
<path d="M28.7458 8.62484C28.7318 8.97204 28.7649 9.32596 28.7458 9.6726C28.5157 13.8519 26.2471 17.9281 23.236 20.7399C23.1705 23.3976 22.1031 26.2324 20.2607 28.1593C19.9163 28.5194 19.5097 28.9198 19.1698 28.2853L18.6882 24.8055C18.2251 25.1191 18.075 25.6147 17.4932 25.1415L11.8405 19.4782C11.4513 18.9361 11.9811 18.7681 12.2353 18.3504L8.75438 17.871C8.4839 17.7887 8.35398 17.5344 8.44078 17.2578C8.4951 17.0853 9.2847 16.4296 9.47398 16.2795C11.4144 14.7389 13.8084 13.8608 16.2998 13.8009C19.0881 10.778 23.3351 8.46636 27.511 8.28996C27.9209 8.2726 28.5756 8.16844 28.7469 8.62484H28.7458ZM22.4094 12.1999C19.1995 12.4978 20.1033 17.4829 23.2567 16.5684C25.7913 15.8332 25.0705 11.9529 22.4094 12.1999Z" fill="#C35300"/>
<path d="M7.87806 29.7512H7.62662C7.38414 29.633 7.26094 29.4751 7.30014 29.1962C7.7487 27.8265 8.16646 26.4304 8.75054 25.1116C9.23606 24.0157 9.70478 23.0004 10.9793 22.6879C14.0997 21.923 15.9141 26.119 12.8929 27.8298C11.3635 28.6956 9.51886 29.1391 7.87806 29.7506V29.7512Z" fill="#C35300"/>
</g>
<defs>
<clipPath id="clip0_334_256">
<rect width="26" height="27.5712" fill="white" transform="translate(6 3.94531)"/>
</clipPath>
</defs>
</svg>
