<svg width="36" height="36" viewBox="0 0 36 36" fill="none" xmlns="http://www.w3.org/2000/svg">
<rect width="35.9453" height="35.9453" rx="10.2701" fill="#FFE2F9"/>
<path d="M9.3125 8.25391V23.8541C9.3125 25.8551 10.9349 27.4775 12.9359 27.4775H15.5769C16.9277 27.4775 18.0223 28.5721 18.0223 29.9229H18.8843C18.8843 28.5721 19.9789 27.4775 21.3297 27.4775H23.9707C25.9717 27.4775 27.5941 25.8551 27.5941 23.8541V8.25391H9.3125Z" fill="#3C1E7C"/>
<path d="M24.9193 21.6229C24.8662 22.0391 24.3586 22.6335 23.9216 22.6335H21.181V21.4582C21.181 20.8423 20.4972 20.2406 19.9015 20.2096C19.726 20.2002 19.4638 20.445 19.3185 20.5478L20.0676 22.5152C19.1599 23.3052 17.7472 23.3052 16.8395 22.5152L17.5885 20.5478C17.4715 20.455 17.1663 20.2036 17.0278 20.2063C16.5262 20.217 15.9997 20.6164 15.8256 21.0783C15.8021 21.1409 15.7254 21.3836 15.7254 21.4327V22.6328H14.4116L14.737 23.2017C14.5602 23.2918 14.3296 23.482 14.1514 23.5486C14.1198 23.5607 14.0916 23.5809 14.0573 23.5567L12.1888 20.295L12.7939 19.9393H12.8706L13.9941 21.8751H14.9663V21.3318C14.9663 21.2437 15.0618 20.9297 15.0988 20.8322C15.2265 20.4954 15.4511 20.209 15.6992 19.9548C15.2312 19.9548 14.7881 19.9804 14.3296 19.8714C13.0447 19.5648 12.0785 18.405 11.9844 17.0878L11.9857 12.8035C12.7865 12.9393 13.5557 13.0483 14.1319 13.6763C14.8103 14.4152 14.7586 15.298 14.7391 16.2407H16.7346V14.5221H16.1537V13.6252C16.1537 13.5418 16.2357 13.3011 16.2754 13.2164C16.4079 12.9319 16.7057 12.6543 17.0123 12.5769V11.4648H17.7701V12.5642L18.4398 13.3851L19.1343 12.5642V11.4648H19.8921V12.5769C20.196 12.6529 20.4999 12.934 20.6297 13.2164C20.6639 13.2917 20.7513 13.5546 20.7513 13.6258V14.5228H20.1704V16.2413H22.166V15.0412C22.166 14.6754 22.4457 14.0898 22.6716 13.8033C23.2512 13.0691 24.0453 12.9521 24.9193 12.8042V17.1759L24.7748 17.8274C24.4715 18.7829 23.6271 19.5978 22.6562 19.8526C22.17 19.9804 21.7034 19.9595 21.2052 19.9561C21.4533 20.211 21.6779 20.4967 21.8056 20.8336C21.8426 20.9311 21.9381 21.2444 21.9381 21.3332V21.8764H22.6199C22.1041 20.2009 24.5267 19.5695 24.9187 21.2699C24.9086 21.3822 24.9328 21.5147 24.9187 21.6236L24.9193 21.6229Z" fill="#FFE2F9"/>
</svg>
