<svg width="36" height="36" viewBox="0 0 36 36" fill="none" xmlns="http://www.w3.org/2000/svg">
<rect width="35.9453" height="35.9453" rx="10.2701" fill="#EFF8D4"/>
<path d="M18.8698 21.6778C18.0248 22.0686 17.7999 22.9463 18.1806 23.7782C18.5088 24.4951 19.174 25.7476 20.0117 25.8692C20.5168 25.9419 20.7752 25.7789 21.2242 25.6334C21.3501 25.7964 22.0648 26.0606 22.1223 26.1552C22.1645 26.2251 22.166 26.4274 22.1493 26.5111C22.1078 26.7243 21.6041 26.7265 21.4156 26.7578L9.59184 26.7549C7.78036 26.4623 7.85532 24.8823 8.18429 23.442C8.78981 20.7928 11.0693 18.6167 13.7578 18.1742C15.1719 17.9413 16.7315 17.9777 18.1173 18.3394L18.1653 18.4376C17.749 19.2469 18.1143 20.1036 18.872 20.5264L18.8691 21.6785L18.8698 21.6778Z" fill="#0E5A67"/>
<path d="M28.7471 19.8964C28.8767 20.657 28.9087 21.4379 28.7471 22.1955C29.0463 22.555 29.9524 22.6278 29.7071 23.2254C29.6343 23.4029 28.8891 24.6671 28.7952 24.7101C28.3694 24.9029 27.9371 24.2777 27.5273 24.2552C26.9968 24.7668 26.3243 25.2181 25.5841 25.3396C25.5201 25.6657 25.7464 26.5521 25.3672 26.6751C25.1686 26.7392 23.9655 26.7261 23.6999 26.7013C23.0136 26.638 23.3913 25.8316 23.2879 25.3425C22.7843 25.2472 22.3323 25.0135 21.9146 24.7275C21.801 24.6504 21.384 24.2639 21.3484 24.2545C21.0099 24.1678 20.3906 25.1482 19.9262 24.5368C19.8134 24.3884 19.146 23.2312 19.1198 23.1045C19.0194 22.6147 20.106 22.4422 20.1344 22.1489C20.1468 22.0158 20.0369 21.7683 20.0267 21.6038C19.9903 21.0427 20.0245 20.4721 20.1395 19.9233C19.884 19.7152 19.1344 19.5041 19.1155 19.1446C19.1082 18.9976 19.6933 17.9881 19.8185 17.8018C20.3702 16.9787 20.6104 17.6788 21.2981 17.919C21.753 17.5311 22.1999 17.2152 22.7508 16.975C22.8702 16.9234 23.1773 16.8644 23.2406 16.8113C23.4102 16.6701 23.1526 15.8098 23.4007 15.5551C23.5827 15.3681 24.7639 15.3913 25.0667 15.419C25.9167 15.4976 25.4553 16.1956 25.6074 16.7851C26.3541 17.0238 27.0004 17.3928 27.579 17.9183C27.9626 17.8266 28.4633 17.2014 28.825 17.4903C28.9691 17.606 29.5615 18.6213 29.6583 18.8353C29.9684 19.5187 29.2122 19.6024 28.7486 19.8942L28.7471 19.8964ZM24.0965 19.304C21.9415 19.6424 22.2938 23.122 24.6227 22.8804C26.9517 22.6387 26.5972 18.911 24.0965 19.304Z" fill="#0E5A67"/>
<path d="M15.2761 9.01423C18.2877 8.75659 20.3649 12.0491 18.8721 14.6801C17.7331 16.6881 14.9908 17.2165 13.191 15.7522C10.5418 13.5964 11.8766 9.30535 15.2761 9.01423Z" fill="#0E5A67"/>
</svg>
