<svg width="296" height="52" viewBox="0 0 296 52" fill="none" xmlns="http://www.w3.org/2000/svg">
<path d="M66.0682 5.87669L64.6267 7.25472C64.2172 6.77802 63.7114 6.39341 63.1426 6.12621C62.5739 5.85901 61.955 5.71526 61.3266 5.70443C60.8406 5.69261 60.3573 5.78065 59.9066 5.9631C59.4559 6.14555 59.0475 6.41853 58.7066 6.76516C58.3605 7.10269 58.0876 7.50794 57.9051 7.95562C57.7226 8.4033 57.6343 8.88378 57.6458 9.3671C57.6359 10.0376 57.7982 10.6993 58.1173 11.2891C58.4313 11.8422 58.8926 12.2973 59.45 12.6037C60.0333 12.9224 60.6892 13.0848 61.3538 13.0751C61.9177 13.0827 62.4768 12.9715 62.9948 12.7487C63.606 12.4392 64.1584 12.025 64.6267 11.5248L66.0228 12.9844C65.3721 13.6585 64.6041 14.2084 63.7563 14.6072C62.9846 14.9175 62.1582 15.0686 61.3266 15.0515C60.5666 15.0804 59.8088 14.9538 59.0994 14.6794C58.3901 14.4051 57.7443 13.9887 57.2016 13.4559C56.6679 12.919 56.2501 12.2783 55.9741 11.5734C55.6981 10.8686 55.5697 10.1145 55.5969 9.35804C55.5791 8.35148 55.8327 7.35871 56.3313 6.48411C56.834 5.6358 57.5579 4.94012 58.4255 4.47146C59.3181 3.9647 60.3274 3.69911 61.3538 3.70085C62.2464 3.70081 63.1282 3.89574 63.9376 4.27201C64.7552 4.64703 65.482 5.19444 66.0682 5.87669ZM71.1632 3.97283H73.2484L77.4006 14.7795H75.2611L74.4179 12.5583H70.0119L69.1053 14.7795H66.9657L71.136 3.97283H71.1632ZM72.2149 6.83768L70.7734 10.5547H73.6473L72.2149 6.83768ZM78.9872 3.97283H81.0724V8.05253H84.6988V3.97283H86.7749V14.7795H84.6988V10.047H81.0724V14.7795H78.9872V3.97283ZM89.2408 3.97283H91.326V7.68989L94.2543 3.97283H96.6931L92.9216 8.79594L97.0648 14.7795H94.626L91.2897 9.98358V14.7795H89.2046V3.97283H89.2408ZM97.4909 3.97283H103.465V6.00361H101.498V14.7795H99.4129V6.00361H97.4909V3.97283ZM104.943 9.86573H108.669V11.7333H104.943V9.86573ZM111.19 3.97283H118.968V14.7795H116.892V5.90389H113.266V14.7795H111.199V3.97283H111.19ZM121.443 3.97283H127.336V5.98548H123.483V7.94373H127.336V9.92012H123.483V12.7578H127.336V14.7795H121.443V3.97283ZM128.188 3.97283H134.163V6.00361H132.196V14.7795H130.11V6.00361H128.188V3.97283ZM135.577 3.97283H141.479V5.98548H137.626V7.94373H141.479V9.92012H137.626V12.7578H141.479V14.7795H135.577V3.97283ZM143.392 3.97283H145.568C146.434 3.92428 147.301 4.03805 148.124 4.30828C148.638 4.51754 149.07 4.88622 149.357 5.35993C149.669 5.88925 149.826 6.49549 149.811 7.10966C149.836 7.78713 149.628 8.45268 149.221 8.99539C148.809 9.50204 148.247 9.86664 147.617 10.038C146.904 10.1787 146.176 10.2365 145.45 10.2102V14.7432H143.392V3.97283ZM145.45 8.19758H146.103C146.463 8.21593 146.824 8.17925 147.173 8.08879C147.366 8.02437 147.532 7.89661 147.644 7.72615C147.765 7.54406 147.826 7.32821 147.816 7.10966C147.828 6.92889 147.789 6.74844 147.704 6.58839C147.619 6.42833 147.492 6.29494 147.336 6.20307C146.925 6.02415 146.477 5.94941 146.03 5.98548H145.45V8.19758ZM151.796 14.7795V3.97283H157.435V5.98548H153.809V8.05253H154.253C155.023 8.01823 155.792 8.11636 156.529 8.34264C157.122 8.54924 157.629 8.94809 157.97 9.47589C158.363 10.0558 158.565 10.7432 158.55 11.4432C158.598 12.0342 158.467 12.6258 158.177 13.1426C157.886 13.6593 157.448 14.0777 156.919 14.3443C156.263 14.6559 155.54 14.7992 154.815 14.7614L151.796 14.7795ZM153.854 9.89293V12.8212H154.371C155 12.9131 155.642 12.7816 156.184 12.4495C156.311 12.3191 156.409 12.1641 156.473 11.9941C156.537 11.8241 156.565 11.6428 156.556 11.4613C156.556 10.4188 155.803 9.89293 154.307 9.89293H153.854ZM163.383 12.3136L159.548 3.97283H161.869L164.407 10.0017L166.492 3.97283H168.614L165.731 11.7061C165.434 12.7151 164.881 13.6301 164.126 14.3625C163.611 14.7776 162.974 15.0132 162.313 15.0334C161.735 15.0071 161.17 14.8527 160.659 14.5815C160.148 14.3103 159.703 13.9289 159.357 13.4649L160.708 12.105C160.894 12.3615 161.132 12.5752 161.407 12.7316C161.683 12.888 161.988 12.9835 162.304 13.0116C162.504 13.0258 162.703 12.9783 162.875 12.8756C163.078 12.7108 163.261 12.5221 163.419 12.3136H163.383ZM170.001 3.97283H172.186C173.048 3.92413 173.912 4.03792 174.733 4.30828C175.251 4.51418 175.687 4.88344 175.975 5.35993C176.287 5.88925 176.444 6.49549 176.429 7.10966C176.455 7.78873 176.243 8.45562 175.83 8.99539C175.421 9.50579 174.858 9.87126 174.225 10.038C173.512 10.1796 172.785 10.2374 172.059 10.2102V14.7432H170.001V3.97283ZM172.059 8.19758H172.711C173.075 8.21559 173.438 8.17892 173.79 8.08879C173.984 8.02437 174.15 7.89661 174.262 7.72615C174.383 7.54406 174.443 7.32821 174.434 7.10966C174.446 6.92782 174.406 6.74633 174.32 6.58599C174.233 6.42565 174.103 6.29294 173.944 6.20307C173.534 6.02415 173.085 5.94941 172.639 5.98548H172.059V8.19758ZM178.405 3.97283H183.772V5.98548H180.445V14.7795H178.405V3.97283ZM195.313 5.87669L193.872 7.25472C193.462 6.77802 192.956 6.39341 192.387 6.12621C191.819 5.85901 191.2 5.71526 190.571 5.70443C190.087 5.69278 189.605 5.78094 189.156 5.96341C188.707 6.14589 188.3 6.41879 187.96 6.76516C187.611 7.1009 187.336 7.50562 187.152 7.95358C186.968 8.40153 186.879 8.88291 186.891 9.3671C186.881 10.0376 187.043 10.6993 187.362 11.2891C187.676 11.8422 188.137 12.2973 188.695 12.6037C189.281 12.9235 189.94 13.086 190.608 13.0751C191.169 13.0817 191.725 12.9705 192.24 12.7487C192.851 12.4392 193.403 12.025 193.872 11.5248L195.268 12.9844C194.618 13.6561 193.854 14.2058 193.01 14.6072C192.235 14.9165 191.406 15.0676 190.571 15.0515C189.811 15.0804 189.054 14.9538 188.344 14.6794C187.635 14.4051 186.989 13.9887 186.446 13.4559C185.913 12.919 185.495 12.2783 185.219 11.5734C184.943 10.8686 184.815 10.1145 184.842 9.35804C184.824 8.35148 185.078 7.35871 185.576 6.48411C186.079 5.6358 186.803 4.94012 187.67 4.47146C188.566 3.96356 189.578 3.69795 190.608 3.70085C191.497 3.70066 192.376 3.89564 193.182 4.27201C194.001 4.64477 194.729 5.19252 195.313 5.87669ZM197.126 3.97283H199.202V7.68989L202.14 3.97283H204.615L200.843 8.79594L204.977 14.7795H202.539L199.202 9.98358V14.7795H197.126V3.97283ZM214.352 3.97283V14.7795H212.303V8.01626L208.268 14.7795H206.455V3.97283H208.513V10.9627L212.602 3.97283H214.352ZM224.696 3.97283V14.7795H222.638V8.01626L218.604 14.7795H216.79V3.97283H218.848V10.9627L222.937 3.97283H224.696ZM217.833 1.08984H219.456C219.582 1.29328 219.769 1.45185 219.991 1.54314C220.253 1.64805 220.534 1.69744 220.816 1.6882C221.127 1.69409 221.435 1.63543 221.722 1.51595C221.917 1.42589 222.079 1.27683 222.185 1.08984H223.807C223.766 1.38901 223.664 1.67666 223.509 1.93535C223.353 2.19405 223.146 2.4184 222.901 2.5948C222.275 3.00291 221.535 3.19988 220.788 3.15689C220.272 3.1737 219.757 3.08741 219.274 2.90304C218.886 2.75382 218.545 2.50339 218.286 2.17776C218.03 1.86651 217.867 1.48952 217.815 1.08984H217.833ZM56.1318 22.2136H61.4898V24.2263H58.1626V33.0203H56.1318V22.2136ZM68.2077 21.9416C68.9423 21.9331 69.6708 22.0761 70.3478 22.3615C71.0247 22.647 71.6356 23.0688 72.1424 23.6007C72.6786 24.1284 73.1015 24.76 73.3852 25.4568C73.6689 26.1536 73.8075 26.901 73.7924 27.6532C73.8101 28.3966 73.6753 29.1357 73.3962 29.8249C73.1171 30.5142 72.6996 31.1388 72.1696 31.6604C71.6574 32.1883 71.0423 32.6056 70.3624 32.8862C69.6825 33.1669 68.9522 33.3051 68.2168 33.2923C67.4639 33.3141 66.715 33.1759 66.0196 32.8868C65.3241 32.5976 64.6979 32.1642 64.1824 31.6151C63.576 30.9955 63.1188 30.2459 62.8456 29.4232C62.5723 28.6004 62.4903 27.7262 62.6057 26.867C62.721 26.0078 63.0308 25.1862 63.5114 24.4647C63.992 23.7432 64.6308 23.1408 65.3791 22.7032C66.2362 22.1993 67.2135 21.9362 68.2077 21.9416ZM68.2077 23.9543C67.7377 23.9453 67.2709 24.0341 66.837 24.2151C66.4031 24.3962 66.0116 24.6655 65.6874 25.0059C65.349 25.3564 65.0847 25.7714 64.9102 26.2262C64.7358 26.6811 64.6547 27.1664 64.672 27.6532C64.6496 28.1931 64.7535 28.7307 64.9754 29.2233C65.1973 29.7159 65.5311 30.1499 65.9503 30.4909C66.5942 31.0258 67.4069 31.3149 68.244 31.3068C68.7105 31.3137 69.1734 31.2228 69.6027 31.0401C70.0321 30.8575 70.4185 30.587 70.7371 30.2461C71.0743 29.9014 71.3394 29.493 71.5169 29.0447C71.6944 28.5964 71.7806 28.1171 71.7707 27.6351C71.7794 27.1524 71.6917 26.6728 71.5127 26.2244C71.3337 25.7761 71.0669 25.368 70.7281 25.0241C70.4051 24.6808 70.0142 24.4084 69.5804 24.2243C69.1465 24.0401 68.679 23.9481 68.2077 23.9543ZM85.696 24.1175L84.2545 25.4955C83.8433 25.0186 83.3359 24.6339 82.7657 24.3667C82.1954 24.0996 81.5751 23.9559 80.9455 23.9452C79.9837 23.9452 79.0613 24.3273 78.3812 25.0074C77.7011 25.6875 77.3191 26.6098 77.3191 27.5716C77.3035 28.2398 77.4662 28.9001 77.7905 29.4846C78.0992 30.044 78.5617 30.5033 79.1232 30.8082C79.7065 31.1269 80.3624 31.2893 81.027 31.2796C81.5918 31.2877 82.1517 31.1733 82.668 30.9442C83.2812 30.6417 83.8342 30.23 84.2999 29.7293L85.696 31.1889C85.0478 31.8636 84.2791 32.4109 83.4295 32.8027C82.6597 33.1202 81.8324 33.2746 80.9998 33.256C79.9984 33.251 79.0155 32.9848 78.1484 32.4837C77.2813 31.9827 76.5599 31.2641 76.0555 30.3989C75.551 29.5338 75.281 28.552 75.272 27.5505C75.2631 26.5491 75.5156 25.5627 76.0045 24.6886C76.5032 23.8371 77.2281 23.1405 78.0987 22.676C78.9914 22.1692 80.0006 21.9036 81.027 21.9054C81.9168 21.9043 82.7959 22.0993 83.6018 22.4765C84.4234 22.8492 85.1536 23.3968 85.7414 24.0812L85.696 24.1175ZM90.5101 30.5543L86.6752 22.2136H88.9961L91.5436 28.2425L93.6288 22.2136H95.7412L92.8672 29.9469C92.5676 30.9568 92.0117 31.8719 91.2535 32.6032C90.7275 33.0303 90.0724 33.2667 89.395 33.2741C88.8169 33.2478 88.2519 33.0935 87.7408 32.8223C87.2297 32.551 86.7852 32.1697 86.4394 31.7057L87.7903 30.3458C87.9767 30.6015 88.2154 30.8145 88.4905 30.9708C88.7656 31.1271 89.0708 31.2231 89.3859 31.2524C89.5919 31.2623 89.7955 31.205 89.9661 31.0892C90.1694 30.9244 90.352 30.7357 90.5101 30.5271V30.5543ZM100.655 22.2136H102.731L106.203 31.0892H107.409V34.634H105.396V33.0112H97.9623V34.634H95.9678V31.0802H97.1645L100.628 22.2045L100.655 22.2136ZM101.707 25.0785L99.3404 31.0892H104.073L101.707 25.0785ZM112.033 22.2136H114.118L118.279 33.0203H116.14L115.297 30.7991H110.89L109.984 33.0203H107.844L112.006 22.2136H112.033ZM113.093 25.0785L111.652 28.7865H114.526L113.093 25.0785ZM119.857 22.2136H122.042C122.906 22.1689 123.772 22.2794 124.598 22.54C125.11 22.7554 125.542 23.1265 125.831 23.6007C126.143 24.13 126.3 24.7363 126.285 25.3504C126.308 26.0277 126.1 26.6928 125.695 27.2362C125.282 27.7428 124.721 28.1074 124.091 28.2788C123.377 28.4194 122.65 28.4772 121.924 28.451V32.984H119.857V22.2136ZM121.897 26.4746H122.54C122.903 26.4926 123.267 26.456 123.619 26.3658C123.813 26.3014 123.979 26.1737 124.091 26.0032C124.211 25.8206 124.271 25.6051 124.263 25.3867C124.274 25.2059 124.236 25.0255 124.151 24.8654C124.066 24.7054 123.938 24.572 123.782 24.4801C123.369 24.2997 122.917 24.2249 122.468 24.2625H121.897V26.4746ZM138.215 24.1537L136.783 25.5318C136.371 25.0553 135.864 24.6709 135.294 24.4038C134.723 24.1367 134.103 23.9928 133.474 23.9815C132.994 23.9755 132.517 24.0649 132.072 24.2444C131.627 24.424 131.222 24.6901 130.88 25.0275C130.539 25.3648 130.267 25.7666 130.082 26.2096C129.897 26.6525 129.802 27.1278 129.802 27.6079C129.787 28.2761 129.949 28.9364 130.274 29.5208C130.579 30.0799 131.038 30.5394 131.597 30.8444C132.142 31.1295 132.744 31.2896 133.359 31.3132C133.973 31.3367 134.586 31.223 135.151 30.9804C135.761 30.6733 136.314 30.2622 136.783 29.7656L138.179 31.2252C137.528 31.8959 136.76 32.4427 135.913 32.839C135.139 33.1557 134.309 33.31 133.474 33.2923C132.472 33.2872 131.49 33.021 130.622 32.52C129.755 32.0189 129.034 31.3003 128.529 30.4352C128.025 29.57 127.755 28.5882 127.746 27.5868C127.737 26.5854 127.99 25.5989 128.478 24.7249C128.981 23.8766 129.705 23.1809 130.573 22.7123C131.468 22.2044 132.481 21.9387 133.51 21.9416C134.4 21.9415 135.279 22.1364 136.085 22.5128C136.904 22.8856 137.631 23.4333 138.215 24.1175V24.1537ZM138.95 22.2499H144.924V24.2807H142.93V33.0565H140.845V24.2807H138.922V22.2136L138.95 22.2499ZM146.338 33.0565V22.2136H148.034C148.759 22.1848 149.484 22.2519 150.192 22.4131C150.793 22.5388 151.337 22.8571 151.742 23.3197C152.121 23.7813 152.324 24.3631 152.313 24.9606C152.317 25.3511 152.227 25.7368 152.05 26.0848C151.84 26.4488 151.548 26.7591 151.198 26.9914C151.776 27.2342 152.275 27.6328 152.639 28.1428C152.955 28.6344 153.116 29.209 153.102 29.7928C153.105 30.3793 152.941 30.9546 152.63 31.4519C152.336 31.9282 151.915 32.314 151.415 32.567C150.771 32.8482 150.069 32.9755 149.367 32.9387L146.338 33.0565ZM148.396 24.2172V26.4746H148.841C149.238 26.504 149.633 26.3916 149.956 26.1573C150.077 26.0505 150.173 25.9176 150.236 25.7684C150.299 25.6192 150.327 25.4577 150.318 25.2961C150.324 25.1444 150.297 24.9934 150.237 24.8539C150.177 24.7143 150.088 24.5898 149.974 24.4892C149.668 24.2733 149.296 24.1708 148.922 24.1991L148.396 24.2172ZM148.396 28.3241V31.0983H148.913C149.507 31.1534 150.104 31.0403 150.636 30.7719C150.778 30.668 150.892 30.5312 150.969 30.3733C151.047 30.2154 151.085 30.0411 151.08 29.8653C151.089 29.6521 151.045 29.44 150.954 29.2473C150.862 29.0546 150.725 28.8871 150.554 28.7593C150.035 28.4418 149.429 28.2988 148.823 28.3513L148.396 28.3241ZM155.069 22.2499H160.971V24.2625H157.118V26.2208H160.971V28.1972H157.118V31.0076H160.971V33.0293H155.069V22.2136V22.2499ZM162.884 22.2499H164.969V26.3296H168.596V22.2499H170.672V33.0565H168.596V28.2878H164.969V33.0203H162.875V22.2136L162.884 22.2499ZM173.11 22.2499H175.196V26.3296H178.822V22.2499H180.907V33.0565H178.822V28.2878H175.196V33.0203H173.11V22.2136V22.2499ZM191.596 22.2499H193.636V33.0565H191.596V22.2136V22.2499ZM183.346 33.0565V22.2136H185.404V26.2933H185.848C186.576 26.2738 187.302 26.3749 187.997 26.5925C188.594 26.8099 189.11 27.2055 189.475 27.7257C189.866 28.295 190.083 28.9661 190.099 29.6569C190.115 30.3477 189.93 31.0281 189.565 31.6151C189.258 32.0877 188.825 32.4646 188.314 32.703C187.697 32.9436 187.036 33.0518 186.374 33.0203L183.346 33.0565ZM185.404 28.17V31.0983H185.921C186.51 31.1535 187.103 31.0437 187.634 30.781C187.788 30.6494 187.907 30.4824 187.981 30.2944C188.055 30.1063 188.082 29.9031 188.06 29.7021C188.06 28.6777 187.317 28.17 185.83 28.17H185.404ZM203.98 22.2499V33.0565H201.922V26.2933L197.888 33.0565H196.075V22.2136H198.133V29.1944L202.221 22.2045L203.98 22.2499ZM197.108 19.3578H198.731C198.862 19.5572 199.048 19.7145 199.266 19.8111C199.531 19.9153 199.815 19.9646 200.1 19.9562C200.411 19.9621 200.719 19.9034 201.006 19.7839C201.199 19.6909 201.36 19.5426 201.469 19.3578H203.092C203.051 19.656 202.95 19.9427 202.794 20.2C202.638 20.4574 202.431 20.6799 202.185 20.8537C201.562 21.2686 200.82 21.4691 200.073 21.4249C199.553 21.441 199.036 21.3547 198.55 21.171C198.165 21.0193 197.828 20.7691 197.57 20.4458C197.318 20.131 197.153 19.756 197.09 19.3578H197.108ZM56.9024 48.0064L55.5063 49.466C56.1717 50.1768 56.9774 50.7418 57.8725 51.1251C58.6184 51.3997 59.4076 51.5379 60.2025 51.533C60.9692 51.5644 61.734 51.4363 62.4487 51.157C63.1634 50.8777 63.8124 50.4532 64.3547 49.9102C64.8762 49.3715 65.2845 48.7337 65.5555 48.0346C65.8264 47.3354 65.9545 46.5891 65.9322 45.8396C65.9606 45.0715 65.8202 44.3065 65.5211 43.5985C65.2219 42.8905 64.7711 42.2567 64.2006 41.7418C63.104 40.7263 61.6607 40.1684 60.1662 40.1824C59.2798 40.1853 58.4045 40.3801 57.6005 40.7536C56.7716 41.1137 56.0387 41.6633 55.4609 42.3583L56.9024 43.7363C57.3098 43.2548 57.8164 42.867 58.3875 42.5995C58.9586 42.3319 59.5808 42.1909 60.2115 42.186C61.0852 42.1702 61.934 42.4768 62.5959 43.0473C63.2273 43.5255 63.647 44.2314 63.7654 45.0146H59.6222V46.8822H63.7654C63.5646 47.7146 63.0602 48.4421 62.3511 48.922C61.6998 49.3412 60.9407 49.5617 60.1662 49.5567C59.5443 49.5391 58.933 49.3922 58.371 49.1253C57.8091 48.8583 57.3089 48.4773 56.9024 48.0064ZM67.8814 40.4544H69.9575V44.1715L72.8948 40.4544H75.3699L71.5984 45.2775L75.7325 51.2611H73.2938L69.9575 46.4652V51.2611H67.8814V40.4544ZM82.3054 40.1824C83.0413 40.1743 83.771 40.3174 84.4494 40.6027C85.1277 40.8881 85.7403 41.3097 86.2491 41.8415C86.784 42.3702 87.206 43.002 87.4897 43.6985C87.7733 44.3951 87.9126 45.142 87.8991 45.894C87.9157 46.638 87.7794 47.3776 87.4987 48.0668C87.218 48.7561 86.7989 49.3804 86.2672 49.9012C85.202 50.9543 83.7621 51.5411 82.2642 51.5326C80.7664 51.5241 79.3332 50.9209 78.2801 49.8558C77.4907 49.0606 76.9544 48.0496 76.7388 46.9501C76.5231 45.8506 76.6378 44.7118 77.0682 43.6774C77.4987 42.6429 78.2257 41.759 79.1577 41.1371C80.0897 40.5151 81.1849 40.1829 82.3054 40.1824ZM82.3054 42.1951C81.836 42.1854 81.3698 42.2731 80.936 42.4525C80.5023 42.632 80.1104 42.8993 79.785 43.2377C79.4439 43.5884 79.1773 44.0046 79.0012 44.4611C78.8251 44.9176 78.7433 45.405 78.7605 45.894C78.7378 46.4348 78.8424 46.9733 79.0661 47.4662C79.2897 47.9591 79.626 48.3926 80.0479 48.7317C80.6874 49.2681 81.4979 49.5575 82.3326 49.5476C82.7993 49.5556 83.2624 49.4652 83.692 49.2825C84.1215 49.0998 84.5078 48.8287 84.8257 48.4869C85.4933 47.7814 85.8653 46.8471 85.8653 45.8759C85.8653 44.9046 85.4933 43.9703 84.8257 43.2649C84.5044 42.9218 84.1152 42.6495 83.6828 42.4653C83.2504 42.2811 82.7844 42.1891 82.3144 42.1951H82.3054ZM89.8483 40.4544H91.9334V44.5341H95.5598V40.4544H97.5997V51.2611H95.5145V46.5286H91.8881V51.2611H89.8029V40.4544H89.8483ZM105.188 40.1824C105.924 40.1815 106.653 40.3324 107.328 40.6257C108.004 40.9189 108.611 41.3482 109.114 41.8868C110.162 42.9663 110.748 44.4119 110.748 45.9167C110.748 47.4215 110.162 48.867 109.114 49.9465C108.047 51.0001 106.605 51.5872 105.106 51.5787C103.607 51.5702 102.172 50.9668 101.117 49.9012C100.599 49.3736 100.191 48.7487 99.9153 48.0625C99.6399 47.3763 99.503 46.6424 99.5126 45.9031C99.5068 44.9025 99.7631 43.918 100.256 43.0473C100.755 42.1927 101.468 41.483 102.325 40.9885C103.182 40.494 104.153 40.2318 105.143 40.2277L105.188 40.1824ZM105.188 42.1951C104.719 42.1865 104.253 42.2747 103.819 42.4541C103.386 42.6334 102.994 42.9002 102.668 43.2377C102.326 43.5884 102.06 44.0046 101.884 44.4611C101.708 44.9176 101.626 45.405 101.643 45.894C101.623 46.4345 101.728 46.9723 101.952 47.4649C102.175 47.9575 102.51 48.3912 102.931 48.7317C103.574 49.2666 104.387 49.5557 105.224 49.5476C105.691 49.5544 106.154 49.4636 106.583 49.2809C107.012 49.0983 107.399 48.8278 107.717 48.4869C108.379 47.7784 108.747 46.8452 108.747 45.8759C108.747 44.9065 108.379 43.9734 107.717 43.2649C107.394 42.9216 107.004 42.6492 106.57 42.465C106.136 42.2809 105.668 42.1889 105.197 42.1951H105.188ZM113.782 40.4544H115.732L118.234 47.9973L120.763 40.4544H122.749L124.562 51.2611H122.576L121.416 44.4344L119.113 51.2611H117.3L115.034 44.4344L113.918 51.2611H111.915L113.782 40.4544ZM134.154 40.4544V51.2611H132.05V44.4978L128.016 51.2611H126.203V40.4544H128.261V47.4443L132.359 40.4544H134.154ZM141.343 46.5286H140.654C139.9 46.5704 139.143 46.534 138.397 46.4198C137.902 46.3098 137.44 46.0863 137.046 45.7671C136.633 45.4538 136.319 45.0291 136.139 44.5432C135.945 43.9311 135.856 43.2903 135.876 42.6484V40.4997H137.961V42.6121C137.908 43.154 138.049 43.6974 138.36 44.1443C138.848 44.5033 139.456 44.6592 140.056 44.5794H141.298V40.4997H143.374V51.3064H141.298V46.5739L141.343 46.5286ZM145.876 40.4544H151.769V42.4671H147.916V44.4253H151.769V46.4198H147.916V49.2575H151.769V51.2792H145.876V40.4544ZM163.618 42.3583L162.168 43.7C161.756 43.2235 161.249 42.8392 160.678 42.572C160.108 42.3049 159.488 42.161 158.859 42.1497C158.379 42.1437 157.902 42.2331 157.457 42.4127C157.012 42.5922 156.607 42.8584 156.265 43.1957C155.923 43.5331 155.652 43.9349 155.467 44.3778C155.282 44.8208 155.187 45.2961 155.187 45.7761C155.173 46.4442 155.335 47.1041 155.658 47.6891C155.966 48.246 156.425 48.7048 156.982 49.0127C157.527 49.2978 158.129 49.4579 158.744 49.4814C159.358 49.5049 159.971 49.3913 160.536 49.1487C161.146 48.8416 161.698 48.4305 162.168 47.9338L163.564 49.3935C162.912 50.0641 162.144 50.6109 161.297 51.0072C160.527 51.324 159.7 51.4783 158.868 51.4605C158.108 51.4873 157.351 51.3597 156.642 51.0855C155.933 50.8112 155.287 50.396 154.743 49.8649C154.209 49.3277 153.792 48.687 153.516 47.9822C153.24 47.2774 153.111 46.5235 153.138 45.7671C153.117 44.7613 153.367 43.7685 153.863 42.8932C154.366 42.0448 155.09 41.3492 155.958 40.8805C156.853 40.3738 157.866 40.1082 158.895 40.1099C159.785 40.1097 160.663 40.3047 161.47 40.681C162.292 41.0483 163.02 41.5969 163.6 42.2857L163.618 42.3583ZM165.431 40.4544H167.508V44.1715L170.436 40.4544H172.911L169.139 45.2775L173.283 51.2611H170.844L167.508 46.4652V51.2611H165.431V40.4544ZM182.657 40.4544V51.2611H180.554V44.4978L176.519 51.2611H174.706V40.4544H176.764V47.4443L180.862 40.4544H182.657ZM192.992 40.4544V51.2611H190.889V44.4978L186.854 51.2611H185.041V40.4544H187.099V47.4443L191.197 40.4544H192.992ZM186.129 37.5623H187.752C187.881 37.7638 188.067 37.9218 188.287 38.0156C188.552 38.1205 188.836 38.1699 189.121 38.1607C189.432 38.1666 189.74 38.1079 190.028 37.9884C190.218 37.8949 190.376 37.7465 190.481 37.5623H192.113C192.072 37.8604 191.97 38.1468 191.814 38.4041C191.658 38.6614 191.451 38.884 191.206 39.0582C190.587 39.4749 189.848 39.6757 189.103 39.6294C188.584 39.6418 188.067 39.5557 187.58 39.3755C187.193 39.224 186.852 38.974 186.592 38.6503C186.341 38.3359 186.178 37.9604 186.12 37.5623H186.129ZM202.684 48.7951L198.849 40.4544H201.17L203.708 46.4833L205.793 40.4544H207.915L204.986 48.233C204.69 49.2445 204.134 50.1604 203.373 50.8894C202.859 51.3069 202.221 51.5428 201.559 51.5602C200.98 51.5348 200.414 51.3799 199.903 51.1069C199.391 50.8339 198.947 50.4498 198.604 49.9828L199.955 48.6319C200.14 48.8893 200.378 49.1036 200.653 49.2601C200.929 49.4166 201.235 49.5116 201.55 49.5385C201.758 49.5493 201.963 49.4885 202.131 49.3663C202.336 49.2076 202.519 49.0215 202.675 48.8132L202.684 48.7951ZM209.302 40.4544H211.387V44.5341H215.013V40.4544H217.09V51.2611H215.013V46.5286H211.387V51.2611H209.302V40.4544ZM227.434 40.4544V51.2611H225.385V44.4978L221.341 51.2611H219.528V40.4544H221.586V47.4443L225.675 40.4544H227.434ZM229.9 51.2611V40.4544H231.595C232.319 40.4283 233.044 40.4923 233.753 40.6448C234.357 40.7901 234.898 41.1273 235.294 41.6058C235.676 42.0665 235.882 42.6482 235.874 43.2467C235.879 43.6372 235.788 44.0229 235.611 44.3709C235.398 44.7326 235.107 45.0423 234.759 45.2775C235.335 45.5231 235.834 45.9212 236.201 46.4289C236.503 46.9278 236.663 47.5 236.663 48.0834C236.663 48.6669 236.503 49.2391 236.201 49.738C235.912 50.2158 235.494 50.6024 234.995 50.8531C234.35 51.1343 233.649 51.2616 232.946 51.2248L229.9 51.2611ZM231.958 42.4217V44.6973H232.402C232.8 44.7266 233.195 44.6142 233.517 44.38C233.639 44.2732 233.735 44.1402 233.797 43.991C233.86 43.8418 233.888 43.6804 233.88 43.5187C233.886 43.3671 233.858 43.2161 233.798 43.0765C233.739 42.937 233.649 42.8124 233.535 42.7118C233.228 42.4974 232.857 42.3949 232.484 42.4217H231.958ZM231.958 46.5286V49.3028H232.465C233.059 49.3605 233.657 49.2472 234.188 48.9764C234.33 48.873 234.445 48.7363 234.523 48.5783C234.6 48.4203 234.638 48.2457 234.632 48.0698C234.641 47.8575 234.599 47.6462 234.509 47.4537C234.419 47.2612 234.284 47.0931 234.115 46.9638C233.593 46.6462 232.984 46.5033 232.375 46.5558L231.958 46.5286ZM238.63 40.4544H244.469V42.4671H240.607V44.4253H244.469V46.4198H240.607V49.2575H244.469V51.2792H238.567V40.4544H238.63ZM246.436 40.4544H248.621C249.486 40.4097 250.352 40.5202 251.178 40.7808C251.691 40.9935 252.124 41.3652 252.411 41.8415C252.723 42.3708 252.88 42.9771 252.864 43.5912C252.889 44.2701 252.677 44.9365 252.266 45.477C251.856 45.9874 251.294 46.3528 250.661 46.5196C249.947 46.6569 249.22 46.7116 248.494 46.6827V51.2611H246.373V40.4544H246.436ZM248.494 44.6792H249.147C249.51 44.6972 249.874 44.6605 250.226 44.5704C250.416 44.5008 250.581 44.3741 250.697 44.2077C250.817 44.0251 250.877 43.8096 250.869 43.5912C250.881 43.4105 250.842 43.23 250.757 43.07C250.673 42.9099 250.545 42.7765 250.389 42.6846C249.976 42.5042 249.524 42.4295 249.074 42.4671H248.494V44.6792ZM264.813 42.3583L263.299 43.7C262.889 43.2233 262.384 42.8387 261.815 42.5715C261.246 42.3043 260.627 42.1606 259.999 42.1497C259.519 42.1437 259.042 42.2331 258.597 42.4127C258.152 42.5922 257.747 42.8584 257.405 43.1957C257.064 43.5331 256.793 43.9349 256.607 44.3778C256.422 44.8208 256.327 45.2961 256.327 45.7761C256.314 46.4429 256.474 47.1017 256.79 47.6891C257.103 48.2446 257.565 48.7027 258.122 49.0127C258.708 49.3326 259.367 49.495 260.035 49.4841C260.6 49.4922 261.16 49.3778 261.676 49.1487C262.285 48.8434 262.834 48.432 263.299 47.9338L264.695 49.3935C264.048 50.0656 263.283 50.6126 262.438 51.0072C261.664 51.324 260.834 51.4783 259.999 51.4605C259.239 51.4873 258.482 51.3597 257.773 51.0855C257.064 50.8112 256.418 50.396 255.874 49.8649C255.341 49.3277 254.923 48.687 254.647 47.9822C254.371 47.2774 254.242 46.5235 254.269 45.7671C254.251 44.7605 254.505 43.7678 255.004 42.8932C255.506 42.0448 256.23 41.3492 257.098 40.8805C257.993 40.3726 259.006 40.107 260.035 40.1099C260.929 40.1152 261.812 40.3121 262.624 40.6875C263.435 41.0628 264.157 41.6078 264.74 42.2857L264.813 42.3583ZM274.486 40.4544V51.2611H272.437V44.4978L268.403 51.2611H266.59V40.4544H268.648V47.4443L272.737 40.4544H274.486ZM275.883 40.4544H281.857V42.4852H279.826V51.2611H277.741V42.4852H275.819V40.4544H275.883ZM283.28 40.4544H289.173V42.4671H285.266V44.4253H289.119V46.4198H285.266V49.2575H289.119V51.2792H283.226V40.4544H283.28ZM290.025 40.4544H296V42.4852H294.033V51.2611H291.947V42.4852H290.025V40.4544Z" fill="#F8F8F8"/>
<path d="M1.24775 51.098C1.24806 50.8085 1.20216 50.5208 1.11177 50.2458C0.718576 49.6602 0.355454 49.0551 0.0238356 48.4326C-0.00794521 48.3385 -0.00794521 48.2366 0.0238356 48.1425C1.28401 43.818 2.85243 39.9831 6.8868 37.3993C9.37995 35.8218 12.0816 34.8154 14.5476 33.102C13.9356 32.7267 13.4422 32.1862 13.1242 31.5426C12.6392 31.1763 12.2733 30.6748 12.0726 30.1011C11.9819 29.7748 12.0726 29.675 12.0726 29.2761C11.9028 29.1333 11.7632 28.9581 11.662 28.7607C11.5608 28.5633 11.5 28.3477 11.4831 28.1266C11.4662 27.9054 11.4936 27.683 11.5637 27.4726C11.6338 27.2621 11.7451 27.0677 11.8912 26.9008C11.6879 26.6671 11.5525 26.3821 11.4998 26.0768C11.447 25.7715 11.4789 25.4576 11.5921 25.1692C7.96566 21.0805 7.3945 17.2999 8.47335 16.5747C7.56675 14.2538 7.18597 13.4469 8.1107 12.223C7.04998 10.2829 7.85685 8.07983 8.46428 7.99824C8.04519 7.01872 8.016 5.91612 8.38268 4.9158C8.564 4.53503 8.82692 4.48063 9.28928 4.19958C9.34718 3.64906 9.50705 3.11412 9.76072 2.6221C10.3435 1.92005 11.1045 1.38771 11.9638 1.08088C12.4543 1.20699 12.9099 1.44255 13.2965 1.7699C13.3599 1.89682 13.4143 2.03281 13.4687 2.1688C13.9931 1.64932 14.6286 1.25563 15.3272 1.01742C15.8199 1.14516 16.2781 1.38047 16.669 1.70643C17.5121 3.59216 17.9564 5.93119 19.3072 7.88944C21.2655 10.7452 24.4748 13.9455 26.2427 16.3027C26.288 16.3661 26.3334 16.4387 26.3878 16.5021C26.5645 18.4672 26.9319 20.4104 27.4847 22.3044C27.4847 18.7233 27.4847 15.8222 27.6751 15.5865C27.9397 15.2816 28.1331 14.9217 28.2413 14.5328C28.3495 14.1439 28.3698 13.7358 28.3007 13.3381C27.9834 12.3046 26.3424 11.7878 25.8891 11.2257C25.4151 10.7513 25.0434 10.1847 24.7971 9.56099C24.5507 8.93725 24.4349 8.26961 24.4567 7.59933C24.5202 5.72267 25.0913 4.28118 26.6235 3.49244C27.9199 2.83062 29.9144 2.83969 32.7702 3.13886C33.1241 2.30544 33.7227 1.59914 34.4868 1.11346C35.2509 0.627777 36.1446 0.38563 37.0494 0.419065C38.0567 0.392244 39.0451 0.695869 39.8636 1.28357C40.6821 1.87127 41.2858 2.71074 41.5824 3.67375C41.664 3.982 41.1653 3.9548 41.1109 4.24492C41.1839 4.52 41.2205 4.80346 41.2197 5.08805C41.1356 6.12307 40.665 7.0885 39.9015 7.7924C39.1381 8.4963 38.1377 8.8871 37.0992 8.8871C36.0608 8.8871 35.0604 8.4963 34.2969 7.7924C33.5335 7.0885 33.0629 6.12307 32.9787 5.08805C32.9826 4.78171 33.0252 4.47708 33.1057 4.18145C33.1057 4.02733 33.0513 4.05453 32.9153 4.00013C31.3525 3.69989 29.7519 3.65092 28.1738 3.85508C27.5322 3.97664 26.9394 4.28085 26.4666 4.73115C25.9938 5.18146 25.661 5.75871 25.5084 6.39355C25.0097 8.39714 25.599 9.43067 26.8864 10.2647C27.6047 10.7536 28.3853 11.1438 29.2073 11.4252C30.6306 11.8694 32.7249 11.951 34.0032 12.6763C34.8282 13.1477 34.6287 13.7279 35.5263 13.8549C36.0158 14.4804 37.1944 14.0815 37.82 14.7615C37.9469 14.8884 37.6387 15.2238 37.7474 15.3598C38.4183 16.203 40.3857 16.5928 40.712 17.5357C40.7846 17.7351 40.712 17.9346 40.3766 18.2066C40.3411 18.7266 40.141 19.2219 39.8054 19.6208C37.684 19.2945 37.5208 19.4486 38.373 20.609C38.4889 20.7103 38.579 20.8377 38.6359 20.9807C38.6903 21.153 38.5271 21.2799 38.3367 21.3525C38.2242 21.5668 38.0475 21.7406 37.8313 21.8496C37.6151 21.9585 37.3702 21.9971 37.131 21.9599C36.6996 21.9777 36.2739 21.857 35.9161 21.6154C35.4084 21.0714 35.6441 22.1593 35.626 22.2772C35.5807 22.6579 35.2906 23.0659 35.2543 23.4014C35.5442 24.1131 35.7659 24.8507 35.9161 25.6044C36.3966 27.0912 36.4963 28.6596 36.9859 30.1374C37.8018 32.5671 38.917 34.0539 37.6115 36.819C37.5937 36.8572 37.5725 36.8936 37.548 36.9278C37.5742 37.1991 37.6166 37.4685 37.6749 37.7347C38.4999 40.3366 39.1436 45.7581 40.7664 47.8252C41.5642 48.8405 44.3928 48.1153 45.0002 49.4933C45.3357 50.2548 44.4472 50.6447 44.0936 51.1886H37.3758C36.9678 50.6265 36.9496 49.9103 36.6051 49.3754C35.3812 47.4353 34.6741 45.3048 33.5046 43.3284C33.1238 42.6757 32.3895 42.1498 32.1175 41.2886C32.0542 40.8075 32.0179 40.3232 32.0087 39.838C30.4221 40.6086 30.0958 41.6512 28.4639 42.2405C24.7727 43.4285 21.0085 44.3763 17.1948 45.0782C17.1948 45.0782 21.9001 39.5298 18.8902 39.0402C15.8803 38.5506 8.7544 40.7084 8.71814 40.7174C8.68187 40.7265 15.8621 38.8317 18.4187 39.4844C20.8212 40.1009 17.5121 44.1262 16.4333 44.9966C15.3806 45.8628 14.3871 46.7987 13.4596 47.798C13.6954 47.8923 13.9516 47.9236 14.2031 47.8886C17.2039 47.7798 20.8484 47.39 23.532 49.0128C24.638 49.6746 23.7042 50.6719 23.0152 51.1977L1.24775 51.098ZM15.2547 32.5761C15.7558 32.3252 16.1767 31.9389 16.4696 31.461C15.9822 31.099 15.6182 30.5957 15.427 30.0195C15.3272 29.6932 15.427 29.5934 15.427 29.2036C15.258 29.0593 15.1192 28.883 15.0185 28.6849C14.9179 28.4868 14.8574 28.2707 14.8406 28.0491C14.8237 27.8275 14.8509 27.6048 14.9204 27.3938C14.9899 27.1827 15.1004 26.9874 15.2457 26.8192C15.0441 26.5845 14.9099 26.2996 14.8572 25.9947C14.8045 25.6898 14.8354 25.3764 14.9465 25.0876C11.3201 20.9989 10.7489 17.2184 11.8278 16.4931C10.9212 14.1722 10.5404 13.3653 11.4651 12.1505C10.4044 10.2013 11.2113 8.0073 11.8278 7.91664C11.4011 6.93931 11.3686 5.83492 11.7371 4.8342C11.9184 4.46249 12.1904 4.39903 12.6437 4.12705C12.6656 3.83772 12.7204 3.55182 12.8069 3.27486L12.7525 3.15699C12.5077 2.88501 12.1179 2.25039 11.9094 2.25039C11.7008 2.25039 10.9393 2.83969 10.6855 3.27486C10.5046 3.7135 10.433 4.18952 10.4769 4.66195C10.0962 4.90673 9.81512 5.02459 9.65193 5.36003C9.21262 6.28793 9.11626 7.34147 9.37995 8.33368C8.84506 8.4062 8.18324 12.0598 9.1261 13.7733C8.3011 14.8521 8.45521 14.979 9.28928 17.037C8.32829 17.6807 9.35275 21.5066 12.5621 25.142C12.4213 25.3951 12.3407 25.6773 12.3266 25.9666C12.3124 26.2559 12.3651 26.5445 12.4805 26.8102C12.3523 26.9595 12.2547 27.1326 12.1935 27.3197C12.1323 27.5067 12.1085 27.704 12.1237 27.9002C12.1389 28.0965 12.1926 28.2878 12.2818 28.4632C12.3711 28.6387 12.494 28.7947 12.6437 28.9226C12.6437 29.2761 12.5712 29.3577 12.6437 29.6478C12.8124 30.157 13.1278 30.6049 13.5503 30.9352C13.919 31.6573 14.5191 32.2351 15.2547 32.5761ZM39.9505 4.09079H34.2208C34.0032 4.48969 33.8763 4.09079 33.8763 5.13338C33.9372 5.94289 34.3017 6.69948 34.8969 7.25155C35.492 7.80363 36.2738 8.11041 37.0856 8.11041C37.8974 8.11041 38.6792 7.80363 39.2744 7.25155C39.8696 6.69948 40.2341 5.94289 40.295 5.13338C40.295 4.06359 40.1681 4.48969 39.9505 4.09079Z" fill="#F8F8F8"/>
</svg>
