<svg width="340" height="59" viewBox="0 0 340 59" fill="none" xmlns="http://www.w3.org/2000/svg">
<path d="M75.6727 6.25424L74.0217 7.83262C73.5527 7.28661 72.9734 6.84609 72.3219 6.54004C71.6704 6.23399 70.9616 6.06935 70.2419 6.05694C69.6852 6.0434 69.1316 6.14424 68.6154 6.35322C68.0992 6.56219 67.6314 6.87486 67.2409 7.27188C66.8445 7.65848 66.532 8.12265 66.323 8.63541C66.1139 9.14817 66.0128 9.69851 66.026 10.2521C66.0145 11.02 66.2005 11.778 66.5659 12.4535C66.9256 13.087 67.454 13.6082 68.0924 13.9592C68.7605 14.3243 69.5118 14.5103 70.273 14.4992C70.9188 14.5079 71.5592 14.3805 72.1526 14.1253C72.8527 13.7708 73.4853 13.2963 74.0217 12.7235L75.6208 14.3953C74.8755 15.1674 73.9958 15.7972 73.0248 16.2541C72.1409 16.6094 71.1943 16.7824 70.2419 16.7629C69.3714 16.796 68.5033 16.651 67.6909 16.3367C66.8784 16.0225 66.1388 15.5456 65.5172 14.9353C64.9059 14.3204 64.4274 13.5865 64.1112 12.7792C63.795 11.9718 63.648 11.1082 63.6792 10.2417C63.6587 9.08883 63.9493 7.95172 64.5203 6.94997C65.0961 5.97834 65.9253 5.18152 66.919 4.64473C67.9414 4.06429 69.0974 3.76008 70.273 3.76208C71.2954 3.76203 72.3054 3.9853 73.2325 4.41628C74.1689 4.84582 75.0014 5.4728 75.6727 6.25424ZM81.5085 4.0736H83.8969L88.6528 16.4514H86.2021L85.2364 13.9073H80.1898L79.1514 16.4514H76.7008L81.4774 4.0736H81.5085ZM82.7131 7.35495L81.062 11.6124H84.3538L82.7131 7.35495ZM90.47 4.0736H92.8583V8.74641H97.0119V4.0736H99.3898V16.4514H97.0119V11.0309H92.8583V16.4514H90.47V4.0736ZM102.214 4.0736H104.603V8.33105L107.957 4.0736H110.75L106.43 9.5979L111.176 16.4514H108.382L104.561 10.9582V16.4514H102.173V4.0736H102.214ZM111.664 4.0736H118.507V6.39962H116.253V16.4514H113.865V6.39962H111.664V4.0736ZM120.199 10.8232H124.467V12.9623H120.199V10.8232ZM127.354 4.0736H136.263V16.4514H133.886V6.28539H129.732V16.4514H127.364V4.0736H127.354ZM139.098 4.0736H145.848V6.37885H141.435V8.6218H145.848V10.8855H141.435V14.1357H145.848V16.4514H139.098V4.0736ZM146.824 4.0736H153.667V6.39962H151.414V16.4514H149.025V6.39962H146.824V4.0736ZM155.287 4.0736H162.047V6.37885H157.634V8.6218H162.047V10.8855H157.634V14.1357H162.047V16.4514H155.287V4.0736ZM164.238 4.0736H166.73C167.722 4.01799 168.715 4.1483 169.658 4.45781C170.246 4.6975 170.741 5.11978 171.071 5.66235C171.428 6.26863 171.608 6.963 171.59 7.66647C171.618 8.44242 171.38 9.20474 170.915 9.82635C170.442 10.4066 169.799 10.8243 169.077 11.0205C168.26 11.1816 167.427 11.2478 166.595 11.2178V16.4098H164.238V4.0736ZM166.595 8.91255H167.343C167.755 8.93356 168.168 8.89155 168.568 8.78795C168.79 8.71415 168.98 8.56782 169.108 8.37258C169.247 8.16402 169.316 7.91679 169.305 7.66647C169.319 7.45942 169.274 7.25273 169.177 7.06941C169.08 6.88608 168.934 6.7333 168.755 6.62807C168.285 6.42314 167.771 6.33753 167.26 6.37885H166.595V8.91255ZM173.864 16.4514V4.0736H180.323V6.37885H176.169V8.74641H176.678C177.559 8.70713 178.441 8.81952 179.284 9.0787C179.964 9.31533 180.545 9.77216 180.935 10.3767C181.385 11.0409 181.617 11.8282 181.6 12.63C181.654 13.3069 181.505 13.9846 181.172 14.5764C180.839 15.1683 180.337 15.6475 179.731 15.9529C178.98 16.3097 178.152 16.4739 177.322 16.4306L173.864 16.4514ZM176.221 10.8544V14.2084H176.813C177.534 14.3137 178.269 14.163 178.89 13.7827C179.035 13.6333 179.147 13.4557 179.22 13.261C179.294 13.0663 179.326 12.8586 179.316 12.6508C179.316 11.4566 178.454 10.8544 176.74 10.8544H176.221ZM187.135 13.6269L182.742 4.0736H185.401L188.308 10.979L190.696 4.0736H193.126L189.824 12.9312C189.484 14.0868 188.851 15.1349 187.986 15.9737C187.396 16.4492 186.667 16.719 185.909 16.7421C185.247 16.712 184.6 16.5352 184.015 16.2246C183.429 15.9139 182.92 15.4771 182.524 14.9457L184.071 13.3881C184.284 13.6818 184.557 13.9266 184.873 14.1057C185.188 14.2849 185.538 14.3942 185.899 14.4265C186.128 14.4427 186.356 14.3883 186.553 14.2707C186.786 14.0819 186.995 13.8658 187.176 13.6269H187.135ZM194.715 4.0736H197.218C198.206 4.01782 199.196 4.14815 200.136 4.45781C200.728 4.69365 201.228 5.1166 201.558 5.66235C201.915 6.26863 202.095 6.963 202.077 7.66647C202.107 8.44425 201.865 9.2081 201.392 9.82635C200.923 10.4109 200.279 10.8295 199.554 11.0205C198.737 11.1828 197.904 11.249 197.072 11.2178V16.4098H194.715V4.0736ZM197.072 8.91255H197.82C198.236 8.93318 198.652 8.89118 199.056 8.78795C199.277 8.71415 199.467 8.56782 199.596 8.37258C199.734 8.16402 199.803 7.91679 199.793 7.66647C199.806 7.45819 199.761 7.25032 199.662 7.06667C199.563 6.88302 199.414 6.73101 199.232 6.62807C198.762 6.42314 198.248 6.33753 197.737 6.37885H197.072V8.91255ZM204.341 4.0736H210.488V6.37885H206.677V16.4514H204.341V4.0736ZM223.707 6.25424L222.056 7.83262C221.587 7.28661 221.008 6.84609 220.356 6.54004C219.705 6.23399 218.996 6.06935 218.276 6.05694C217.721 6.0436 217.169 6.14457 216.655 6.35357C216.14 6.56258 215.674 6.87515 215.286 7.27188C214.886 7.65643 214.571 8.11999 214.36 8.63307C214.149 9.14615 214.047 9.69751 214.061 10.2521C214.049 11.02 214.235 11.778 214.6 12.4535C214.96 13.087 215.489 13.6082 216.127 13.9592C216.798 14.3256 217.553 14.5116 218.318 14.4992C218.96 14.5067 219.597 14.3794 220.187 14.1253C220.887 13.7708 221.52 13.2963 222.056 12.7235L223.655 14.3953C222.912 15.1646 222.036 15.7942 221.07 16.2541C220.182 16.6083 219.232 16.7813 218.276 16.7629C217.406 16.796 216.538 16.651 215.725 16.3367C214.913 16.0225 214.173 15.5456 213.552 14.9353C212.94 14.3204 212.462 13.5865 212.146 12.7792C211.83 11.9718 211.683 11.1082 211.714 10.2417C211.693 9.08883 211.984 7.95172 212.555 6.94997C213.131 5.97834 213.96 5.18152 214.954 4.64473C215.979 4.06299 217.139 3.75876 218.318 3.76208C219.337 3.76187 220.344 3.98518 221.267 4.41628C222.205 4.84323 223.038 5.47061 223.707 6.25424ZM225.784 4.0736H228.162V8.33105L231.526 4.0736H234.361L230.042 9.5979L234.777 16.4514H231.983L228.162 10.9582V16.4514H225.784V4.0736ZM245.514 4.0736V16.4514H243.167V8.70487L238.546 16.4514H236.469V4.0736H238.826V12.0797L243.51 4.0736H245.514ZM257.362 4.0736V16.4514H255.005V8.70487L250.384 16.4514H248.307V4.0736H250.664V12.0797L255.347 4.0736H257.362ZM249.501 0.771484H251.36C251.505 1.0045 251.719 1.18612 251.973 1.29069C252.273 1.41084 252.594 1.46742 252.918 1.45683C253.274 1.46357 253.627 1.39639 253.956 1.25953C254.179 1.15638 254.364 0.985657 254.486 0.771484H256.344C256.297 1.11414 256.18 1.44361 256.002 1.73992C255.823 2.03622 255.587 2.29319 255.306 2.49523C254.589 2.96267 253.741 3.18828 252.886 3.13904C252.295 3.1583 251.705 3.05946 251.152 2.84829C250.708 2.67737 250.317 2.39053 250.02 2.01756C249.727 1.66107 249.54 1.22927 249.48 0.771484H249.501ZM64.2918 24.9662H70.4288V27.2715H66.6179V37.344H64.2918V24.9662ZM78.1234 24.6547C78.9648 24.645 79.7992 24.8087 80.5745 25.1356C81.3499 25.4626 82.0496 25.9457 82.63 26.555C83.2442 27.1594 83.7286 27.8829 84.0535 28.681C84.3785 29.4791 84.5372 30.3351 84.5199 31.1967C84.5403 32.0481 84.3858 32.8947 84.0661 33.6841C83.7464 34.4735 83.2683 35.189 82.6612 35.7864C82.0745 36.3911 81.3701 36.869 80.5913 37.1905C79.8126 37.512 78.9761 37.6703 78.1337 37.6555C77.2714 37.6805 76.4136 37.5222 75.6171 37.1911C74.8205 36.8599 74.1033 36.3634 73.5129 35.7345C72.8183 35.0249 72.2946 34.1663 71.9816 33.2239C71.6687 32.2816 71.5747 31.2803 71.7069 30.2962C71.839 29.3121 72.1938 28.371 72.7443 27.5446C73.2947 26.7182 74.0264 26.0282 74.8836 25.527C75.8653 24.9498 76.9846 24.6485 78.1234 24.6547ZM78.1234 26.96C77.585 26.9496 77.0503 27.0514 76.5534 27.2588C76.0564 27.4661 75.608 27.7746 75.2366 28.1645C74.849 28.5659 74.5463 29.0412 74.3465 29.5622C74.1467 30.0832 74.0538 30.639 74.0736 31.1967C74.0479 31.815 74.1669 32.4307 74.4211 32.995C74.6753 33.5592 75.0576 34.0563 75.5377 34.4468C76.2752 35.0595 77.2062 35.3907 78.1649 35.3814C78.6993 35.3892 79.2294 35.2852 79.7212 35.076C80.213 34.8667 80.6556 34.5569 81.0205 34.1665C81.4067 33.7717 81.7104 33.3039 81.9136 32.7904C82.1169 32.2769 82.2157 31.728 82.2043 31.1759C82.2143 30.623 82.1139 30.0737 81.9088 29.5601C81.7037 29.0466 81.3982 28.5792 81.0101 28.1853C80.6402 27.7921 80.1925 27.4801 79.6955 27.2692C79.1986 27.0582 78.6632 26.9529 78.1234 26.96ZM98.1541 27.1469L96.5031 28.7253C96.0321 28.179 95.4509 27.7384 94.7977 27.4324C94.1446 27.1264 93.4341 26.9618 92.7129 26.9496C91.6113 26.9496 90.5548 27.3872 89.7759 28.1662C88.9969 28.9451 88.5593 30.0016 88.5593 31.1032C88.5415 31.8685 88.7278 32.6248 89.0993 33.2942C89.4529 33.935 89.9826 34.4611 90.6257 34.8103C91.2938 35.1754 92.0451 35.3614 92.8064 35.3503C93.4533 35.3595 94.0945 35.2285 94.6859 34.966C95.3882 34.6196 96.0216 34.1481 96.555 33.5746L98.1541 35.2464C97.4117 36.0191 96.5312 36.646 95.5581 37.0948C94.6764 37.4585 93.7288 37.6352 92.7752 37.614C91.6281 37.6082 90.5024 37.3033 89.5092 36.7294C88.5161 36.1555 87.6898 35.3325 87.112 34.3415C86.5342 33.3506 86.2249 32.2261 86.2147 31.0791C86.2045 29.932 86.4936 28.8022 87.0536 27.8011C87.6248 26.8258 88.4551 26.0278 89.4523 25.4958C90.4747 24.9154 91.6307 24.6112 92.8064 24.6132C93.8255 24.612 94.8324 24.8353 95.7554 25.2674C96.6964 25.6942 97.5328 26.3215 98.206 27.1053L98.1541 27.1469ZM103.668 34.5195L99.2756 24.9662H101.934L104.852 31.8716L107.24 24.9662H109.66L106.368 33.8238C106.025 34.9805 105.388 36.0287 104.52 36.8663C103.917 37.3554 103.167 37.6263 102.391 37.6347C101.729 37.6046 101.082 37.4279 100.496 37.1172C99.9108 36.8065 99.4017 36.3697 99.0056 35.8383L100.553 34.2807C100.766 34.5735 101.04 34.8176 101.355 34.9966C101.67 35.1756 102.02 35.2856 102.38 35.3191C102.616 35.3304 102.85 35.2648 103.045 35.1322C103.278 34.9434 103.487 34.7273 103.668 34.4884V34.5195ZM115.288 24.9662H117.666L121.643 35.1322H123.024V39.1923H120.719V37.3336H112.204V39.1923H109.919V35.1218H111.29L115.257 24.9558L115.288 24.9662ZM116.492 28.2476L113.782 35.1322H119.203L116.492 28.2476ZM128.32 24.9662H130.708L135.474 37.344H133.024L132.058 34.7999H127.011L125.973 37.344H123.522L128.289 24.9662H128.32ZM129.535 28.2476L127.884 32.4947H131.175L129.535 28.2476ZM137.281 24.9662H139.784C140.774 24.915 141.766 25.0416 142.712 25.3401C143.299 25.5868 143.793 26.0119 144.124 26.555C144.481 27.1613 144.661 27.8556 144.643 28.5591C144.67 29.3348 144.432 30.0966 143.968 30.719C143.496 31.2993 142.853 31.7169 142.13 31.9132C141.314 32.0743 140.481 32.1405 139.649 32.1104V37.3024H137.281V24.9662ZM139.617 29.8467H140.355C140.771 29.8674 141.187 29.8254 141.59 29.7221C141.812 29.6483 142.002 29.502 142.13 29.3068C142.268 29.0976 142.337 28.8508 142.328 28.6006C142.341 28.3936 142.297 28.1869 142.199 28.0036C142.102 27.8203 141.956 27.6675 141.777 27.5622C141.304 27.3556 140.786 27.27 140.272 27.313H139.617V29.8467ZM158.309 27.1884L156.668 28.7668C156.197 28.221 155.615 27.7808 154.962 27.4748C154.309 27.1689 153.599 27.004 152.878 26.9911C152.328 26.9842 151.782 27.0866 151.272 27.2923C150.762 27.4979 150.298 27.8028 149.907 28.1892C149.516 28.5756 149.205 29.0358 148.993 29.5431C148.781 30.0505 148.672 30.5949 148.672 31.1447C148.655 31.9101 148.841 32.6663 149.212 33.3358C149.562 33.9761 150.088 34.5024 150.728 34.8518C151.353 35.1784 152.042 35.3617 152.746 35.3887C153.45 35.4156 154.151 35.2854 154.799 35.0076C155.498 34.6558 156.131 34.185 156.668 33.6161L158.267 35.288C157.521 36.0561 156.641 36.6824 155.671 37.1363C154.786 37.4991 153.835 37.6758 152.878 37.6555C151.731 37.6498 150.605 37.3449 149.612 36.771C148.619 36.1971 147.792 35.374 147.215 34.3831C146.637 33.3921 146.328 32.2676 146.317 31.1206C146.307 29.9736 146.596 28.8437 147.156 27.8426C147.732 26.871 148.561 26.0742 149.555 25.5374C150.581 24.9556 151.74 24.6514 152.919 24.6547C153.938 24.6545 154.945 24.8778 155.869 25.3089C156.806 25.7359 157.639 26.3632 158.309 27.1469V27.1884ZM159.15 25.0078H165.993V27.3338H163.708V37.3855H161.32V27.3338H159.119V24.9662L159.15 25.0078ZM167.613 37.3855V24.9662H169.555C170.385 24.9333 171.216 25.0101 172.026 25.1947C172.715 25.3387 173.338 25.7033 173.802 26.2331C174.236 26.7618 174.468 27.4282 174.456 28.1126C174.461 28.5598 174.358 29.0016 174.155 29.4002C173.914 29.8171 173.58 30.1726 173.179 30.4386C173.841 30.7167 174.412 31.1733 174.83 31.7574C175.191 32.3204 175.375 32.9786 175.359 33.6473C175.363 34.319 175.175 34.9779 174.819 35.5476C174.482 36.0931 174 36.5351 173.428 36.8248C172.689 37.1469 171.886 37.2927 171.081 37.2505L167.613 37.3855ZM169.97 27.2611V29.8467H170.479C170.934 29.8803 171.387 29.7516 171.756 29.4833C171.895 29.361 172.005 29.2087 172.077 29.0378C172.149 28.8669 172.181 28.6819 172.171 28.4968C172.178 28.3231 172.146 28.1502 172.078 27.9903C172.01 27.8305 171.907 27.6878 171.777 27.5726C171.426 27.3254 171 27.2079 170.572 27.2403L169.97 27.2611ZM169.97 31.9651V35.1426H170.562C171.242 35.2057 171.925 35.0762 172.535 34.7688C172.697 34.6497 172.828 34.493 172.917 34.3121C173.006 34.1313 173.049 33.9317 173.044 33.7304C173.054 33.4862 173.004 33.2432 172.899 33.0225C172.794 32.8018 172.637 32.6099 172.441 32.4635C171.847 32.0999 171.152 31.9361 170.458 31.9962L169.97 31.9651ZM177.613 25.0078H184.373V27.313H179.959V29.556H184.373V31.8197H179.959V35.0387H184.373V37.3544H177.613V24.9662V25.0078ZM186.564 25.0078H188.952V29.6806H193.106V25.0078H195.484V37.3855H193.106V31.9235H188.952V37.344H186.553V24.9662L186.564 25.0078ZM198.277 25.0078H200.665V29.6806H204.819V25.0078H207.207V37.3855H204.819V31.9235H200.665V37.344H198.277V24.9662V25.0078ZM219.45 25.0078H221.786V37.3855H219.45V24.9662V25.0078ZM210 37.3855V24.9662H212.358V29.639H212.866C213.7 29.6167 214.532 29.7325 215.327 29.9817C216.011 30.2307 216.602 30.6838 217.02 31.2797C217.468 31.9318 217.717 32.7004 217.736 33.4916C217.754 34.2828 217.541 35.0622 217.124 35.7345C216.772 36.2758 216.276 36.7075 215.691 36.9805C214.984 37.2562 214.227 37.38 213.469 37.344L210 37.3855ZM212.358 31.7885V35.1426H212.949C213.625 35.2059 214.304 35.08 214.912 34.7791C215.088 34.6284 215.224 34.4371 215.309 34.2218C215.394 34.0064 215.425 33.7736 215.4 33.5434C215.4 32.37 214.549 31.7885 212.846 31.7885H212.358ZM233.634 25.0078V37.3855H231.277V29.639L226.656 37.3855H224.58V24.9662H226.937V32.9619L231.62 24.9558L233.634 25.0078ZM225.763 21.6953H227.622C227.772 21.9236 227.985 22.1038 228.235 22.2145C228.539 22.3337 228.864 22.3903 229.19 22.3806C229.546 22.3874 229.9 22.3202 230.228 22.1833C230.449 22.0768 230.634 21.9069 230.758 21.6953H232.617C232.57 22.0368 232.454 22.3652 232.276 22.6599C232.097 22.9547 231.86 23.2095 231.578 23.4086C230.864 23.8838 230.015 24.1135 229.159 24.0628C228.564 24.0813 227.971 23.9825 227.414 23.7721C226.974 23.5982 226.587 23.3118 226.293 22.9414C226.004 22.5809 225.815 22.1514 225.743 21.6953H225.763ZM65.1745 54.5088L63.5754 56.1806C64.3375 56.9947 65.2604 57.6418 66.2856 58.0809C67.1399 58.3954 68.0439 58.5537 68.9543 58.5481C69.8324 58.584 70.7085 58.4374 71.5271 58.1175C72.3457 57.7975 73.0891 57.3113 73.7102 56.6894C74.3075 56.0724 74.7752 55.3419 75.0855 54.5411C75.3959 53.7403 75.5426 52.8854 75.517 52.027C75.5495 51.1472 75.3888 50.271 75.0461 49.4601C74.7034 48.6492 74.1872 47.9232 73.5336 47.3334C72.2776 46.1703 70.6245 45.5313 68.9127 45.5474C67.8974 45.5506 66.8949 45.7738 65.9741 46.2015C65.0246 46.614 64.1852 47.2436 63.5234 48.0395L65.1745 49.6179C65.6411 49.0664 66.2213 48.6223 66.8755 48.3158C67.5296 48.0093 68.2423 47.8478 68.9647 47.8422C69.9653 47.8241 70.9375 48.1753 71.6957 48.8287C72.4189 49.3764 72.8996 50.185 73.0352 51.082H68.2897V53.2211H73.0352C72.8052 54.1746 72.2275 55.0078 71.4153 55.5575C70.6693 56.0376 69.7998 56.2902 68.9127 56.2844C68.2005 56.2643 67.5002 56.096 66.8566 55.7903C66.213 55.4846 65.6401 55.0481 65.1745 54.5088ZM77.7495 45.8589H80.1275V50.1163L83.4919 45.8589H86.3267L82.007 51.3832L86.7421 58.2366H83.9488L80.1275 52.7435V58.2366H77.7495V45.8589ZM94.2705 45.5474C95.1134 45.5381 95.9492 45.7019 96.7262 46.0288C97.5032 46.3557 98.2048 46.8386 98.7875 47.4476C99.4003 48.0532 99.8837 48.7768 100.209 49.5746C100.533 50.3725 100.693 51.228 100.677 52.0893C100.696 52.9415 100.54 53.7885 100.219 54.578C99.8974 55.3674 99.4173 56.0825 98.8083 56.679C97.5883 57.8852 95.939 58.5574 94.2234 58.5476C92.5078 58.5379 90.8663 57.847 89.66 56.6271C88.7559 55.7163 88.1417 54.5582 87.8947 53.2989C87.6477 52.0395 87.779 50.7353 88.272 49.5504C88.765 48.3655 89.5978 47.3531 90.6652 46.6408C91.7327 45.9284 92.9872 45.5479 94.2705 45.5474ZM94.2705 47.8526C93.733 47.8416 93.1989 47.942 92.7021 48.1475C92.2053 48.353 91.7564 48.6592 91.3838 49.0468C90.993 49.4485 90.6876 49.9252 90.486 50.4481C90.2843 50.9709 90.1906 51.5292 90.2104 52.0893C90.1843 52.7087 90.3042 53.3255 90.5603 53.8901C90.8164 54.4547 91.2016 54.9511 91.6849 55.3395C92.4173 55.9539 93.3457 56.2854 94.3017 56.274C94.8362 56.2832 95.3667 56.1797 95.8587 55.9704C96.3507 55.7611 96.7931 55.4506 97.1573 55.0591C97.9219 54.2511 98.348 53.1809 98.348 52.0685C98.348 50.9561 97.9219 49.8859 97.1573 49.0779C96.7893 48.685 96.3435 48.3731 95.8482 48.1621C95.353 47.9512 94.8192 47.8457 94.2809 47.8526H94.2705ZM102.91 45.8589H105.298V50.5317H109.452V45.8589H111.788V58.2366H109.4V52.8162H105.246V58.2366H102.858V45.8589H102.91ZM120.48 45.5474C121.323 45.5463 122.158 45.7192 122.931 46.055C123.705 46.3909 124.401 46.8827 124.976 47.4996C126.177 48.736 126.849 50.3917 126.849 52.1153C126.849 53.8388 126.177 55.4945 124.976 56.7309C123.754 57.9378 122.103 58.6102 120.386 58.6004C118.669 58.5907 117.025 57.8996 115.817 56.679C115.224 56.0748 114.756 55.359 114.441 54.5731C114.125 53.7871 113.968 52.9465 113.979 52.0997C113.973 50.9537 114.266 49.826 114.831 48.8287C115.402 47.8498 116.219 47.037 117.2 46.4706C118.182 45.9042 119.295 45.6039 120.428 45.5993L120.48 45.5474ZM120.48 47.8526C119.942 47.8428 119.409 47.9438 118.912 48.1493C118.415 48.3547 117.966 48.6602 117.593 49.0468C117.202 49.4485 116.897 49.9252 116.695 50.4481C116.494 50.9709 116.4 51.5292 116.42 52.0893C116.396 52.7083 116.517 53.3244 116.773 53.8886C117.029 54.4527 117.413 54.9495 117.894 55.3395C118.632 55.9522 119.563 56.2833 120.521 56.274C121.056 56.2819 121.586 56.1779 122.078 55.9686C122.569 55.7594 123.012 55.4496 123.377 55.0591C124.135 54.2476 124.556 53.1788 124.556 52.0685C124.556 50.9583 124.135 49.8894 123.377 49.0779C123.007 48.6847 122.559 48.3728 122.062 48.1618C121.565 47.9509 121.03 47.8456 120.49 47.8526H120.48ZM130.324 45.8589H132.556L135.422 54.4984L138.319 45.8589H140.594L142.67 58.2366H140.396L139.067 50.4175L136.43 58.2366H134.353L131.757 50.4175L130.48 58.2366H128.185L130.324 45.8589ZM153.657 45.8589V58.2366H151.248V50.4902L146.627 58.2366H144.55V45.8589H146.907V53.865L151.601 45.8589H153.657ZM161.891 52.8162H161.102C160.238 52.8641 159.372 52.8223 158.516 52.6916C157.95 52.5655 157.42 52.3096 156.969 51.9439C156.497 51.5851 156.136 51.0987 155.931 50.5421C155.708 49.841 155.606 49.1071 155.63 48.3718V45.9108H158.018V48.3303C157.956 48.951 158.118 49.5734 158.475 50.0852C159.033 50.4964 159.729 50.675 160.417 50.5836H161.839V45.9108H164.217V58.2885H161.839V52.8681L161.891 52.8162ZM167.083 45.8589H173.833V48.1641H169.42V50.4071H173.833V52.6916H169.42V55.9418H173.833V58.2574H167.083V45.8589ZM187.405 48.0395L185.743 49.5764C185.272 49.0306 184.691 48.5903 184.038 48.2844C183.384 47.9784 182.674 47.8136 181.953 47.8007C181.403 47.7938 180.858 47.8962 180.348 48.1018C179.838 48.3075 179.374 48.6123 178.982 48.9987C178.591 49.3851 178.281 49.8453 178.069 50.3527C177.857 50.8601 177.748 51.4044 177.748 51.9543C177.731 52.7195 177.918 53.4754 178.288 54.1453C178.64 54.7833 179.166 55.3088 179.804 55.6614C180.428 55.9879 181.117 56.1713 181.821 56.1982C182.525 56.2252 183.227 56.095 183.874 55.8171C184.573 55.4654 185.206 54.9945 185.743 54.4257L187.342 56.0975C186.596 56.8657 185.717 57.492 184.746 57.9459C183.864 58.3087 182.917 58.4854 181.964 58.4651C181.093 58.4958 180.226 58.3496 179.414 58.0355C178.602 57.7214 177.862 57.2458 177.239 56.6375C176.628 56.0222 176.15 55.2883 175.834 54.481C175.518 53.6738 175.37 52.8103 175.401 51.9439C175.377 50.7919 175.664 49.6548 176.232 48.6522C176.807 47.6805 177.637 46.8837 178.63 46.3469C179.656 45.7665 180.816 45.4624 181.995 45.4643C183.014 45.4641 184.02 45.6874 184.944 46.1185C185.885 46.5391 186.72 47.1675 187.384 47.9565L187.405 48.0395ZM189.482 45.8589H191.859V50.1163L195.214 45.8589H198.048L193.729 51.3832L198.474 58.2366H195.681L191.859 52.7435V58.2366H189.482V45.8589ZM209.211 45.8589V58.2366H206.802V50.4902L202.181 58.2366H200.104V45.8589H202.462V53.865L207.155 45.8589H209.211ZM221.049 45.8589V58.2366H218.64V50.4902L214.019 58.2366H211.942V45.8589H214.299V53.865L218.993 45.8589H221.049ZM213.188 42.5464H215.047C215.194 42.7771 215.408 42.9581 215.66 43.0656C215.963 43.1857 216.289 43.2422 216.615 43.2317C216.971 43.2385 217.325 43.1713 217.653 43.0344C217.871 42.9273 218.052 42.7573 218.173 42.5464H220.042C219.995 42.8877 219.878 43.2159 219.7 43.5105C219.521 43.8052 219.284 44.0602 219.003 44.2597C218.294 44.737 217.447 44.9669 216.594 44.9139C216 44.9282 215.408 44.8295 214.85 44.6232C214.406 44.4496 214.016 44.1633 213.718 43.7925C213.43 43.4324 213.244 43.0023 213.178 42.5464H213.188ZM232.149 55.4122L227.757 45.8589H230.415L233.323 52.7643L235.711 45.8589H238.141L234.787 54.7684C234.448 55.9268 233.81 56.976 232.939 57.8109C232.35 58.2891 231.62 58.5593 230.862 58.5793C230.198 58.5501 229.55 58.3727 228.964 58.06C228.378 57.7474 227.87 57.3074 227.477 56.7725L229.024 55.2253C229.235 55.52 229.508 55.7655 229.824 55.9447C230.139 56.124 230.49 56.2328 230.851 56.2637C231.089 56.276 231.324 56.2063 231.516 56.0664C231.752 55.8846 231.961 55.6715 232.139 55.4329L232.149 55.4122ZM239.73 45.8589H242.118V50.5317H246.272V45.8589H248.65V58.2366H246.272V52.8162H242.118V58.2366H239.73V45.8589ZM260.498 45.8589V58.2366H258.151V50.4902L253.52 58.2366H251.443V45.8589H253.8V53.865L258.483 45.8589H260.498ZM263.322 58.2366V45.8589H265.264C266.094 45.829 266.924 45.9023 267.735 46.0769C268.427 46.2434 269.047 46.6296 269.501 47.1776C269.938 47.7054 270.174 48.3716 270.165 49.0572C270.17 49.5044 270.067 49.9461 269.864 50.3448C269.62 50.7591 269.287 51.1138 268.888 51.3832C269.548 51.6645 270.119 52.1204 270.539 52.7019C270.886 53.2733 271.069 53.9288 271.069 54.597C271.069 55.2653 270.886 55.9207 270.539 56.4921C270.208 57.0394 269.73 57.4822 269.158 57.7693C268.419 58.0914 267.616 58.2372 266.811 58.1951L263.322 58.2366ZM265.679 48.1122V50.7186H266.188C266.644 50.7522 267.096 50.6235 267.466 50.3552C267.605 50.2329 267.715 50.0805 267.787 49.9097C267.859 49.7388 267.891 49.5538 267.881 49.3687C267.888 49.195 267.856 49.022 267.788 48.8622C267.719 48.7024 267.616 48.5597 267.486 48.4445C267.135 48.1988 266.709 48.0815 266.282 48.1122H265.679ZM265.679 52.8162V55.9937H266.261C266.941 56.0597 267.625 55.93 268.234 55.6199C268.397 55.5014 268.529 55.3448 268.617 55.1638C268.706 54.9829 268.749 54.7829 268.743 54.5815C268.753 54.3383 268.705 54.0962 268.602 53.8757C268.499 53.6552 268.344 53.4628 268.151 53.3146C267.553 52.9508 266.854 52.7871 266.157 52.8473L265.679 52.8162ZM273.322 45.8589H280.009V48.1641H275.586V50.4071H280.009V52.6916H275.586V55.9418H280.009V58.2574H273.249V45.8589H273.322ZM282.263 45.8589H284.765C285.756 45.8077 286.748 45.9343 287.694 46.2327C288.282 46.4764 288.777 46.9021 289.106 47.4476C289.463 48.0539 289.643 48.7483 289.625 49.4518C289.653 50.2293 289.411 50.9926 288.94 51.6116C288.471 52.1962 287.826 52.6148 287.102 52.8058C286.284 52.9631 285.452 53.0258 284.62 52.9927V58.2366H282.19V45.8589H282.263ZM284.62 50.6978H285.368C285.783 50.7185 286.2 50.6765 286.603 50.5732C286.822 50.4935 287.01 50.3485 287.143 50.1579C287.281 49.9487 287.35 49.7019 287.341 49.4518C287.354 49.2447 287.309 49.038 287.212 48.8547C287.115 48.6714 286.969 48.5186 286.79 48.4133C286.317 48.2067 285.799 48.1211 285.284 48.1641H284.62V50.6978ZM303.311 48.0395L301.577 49.5764C301.108 49.0303 300.529 48.5898 299.877 48.2838C299.226 47.9777 298.517 47.8131 297.797 47.8007C297.247 47.7938 296.702 47.8962 296.192 48.1018C295.682 48.3075 295.218 48.6123 294.827 48.9987C294.435 49.3851 294.125 49.8453 293.913 50.3527C293.701 50.8601 293.592 51.4044 293.592 51.9543C293.577 52.718 293.759 53.4726 294.121 54.1453C294.481 54.7816 295.009 55.3063 295.648 55.6614C296.319 56.0278 297.074 56.2138 297.839 56.2014C298.486 56.2106 299.127 56.0796 299.718 55.8171C300.416 55.4675 301.045 54.9963 301.577 54.4257L303.176 56.0975C302.435 56.8673 301.559 57.4939 300.591 57.9459C299.705 58.3087 298.754 58.4854 297.797 58.4651C296.927 58.4958 296.06 58.3496 295.248 58.0355C294.435 57.7214 293.695 57.2458 293.072 56.6375C292.462 56.0222 291.984 55.2883 291.667 54.481C291.351 53.6738 291.204 52.8103 291.235 51.9439C291.214 50.791 291.505 49.6539 292.076 48.6522C292.651 47.6805 293.481 46.8837 294.474 46.3469C295.5 45.7652 296.66 45.461 297.839 45.4643C298.863 45.4703 299.874 45.6959 300.804 46.1258C301.733 46.5557 302.56 47.18 303.228 47.9565L303.311 48.0395ZM314.391 45.8589V58.2366H312.044V50.4902L307.423 58.2366H305.346V45.8589H307.704V53.865L312.387 45.8589H314.391ZM315.99 45.8589H322.833V48.1849H320.507V58.2366H318.119V48.1849H315.917V45.8589H315.99ZM324.463 45.8589H331.213V48.1641H326.737V50.4071H331.151V52.6916H326.737V55.9418H331.151V58.2574H324.401V45.8589H324.463ZM332.189 45.8589H339.032V48.1849H336.779V58.2366H334.39V48.1849H332.189V45.8589Z" fill="#0E5A67"/>
<path d="M1.42915 58.0501C1.42951 57.7186 1.37693 57.389 1.2734 57.074C0.823043 56.4034 0.407131 55.7102 0.0273009 54.9972C-0.00910028 54.8895 -0.00910028 54.7727 0.0273009 54.6649C1.47068 49.7118 3.26712 45.3193 7.88801 42.3599C10.7436 40.5531 13.838 39.4004 16.6625 37.4379C15.9616 37.0081 15.3964 36.3889 15.0322 35.6518C14.4767 35.2322 14.0576 34.6578 13.8277 34.0008C13.7238 33.6269 13.8277 33.5127 13.8277 33.0558C13.6332 32.8922 13.4734 32.6916 13.3574 32.4655C13.2415 32.2394 13.1718 31.9925 13.1525 31.7391C13.1332 31.4858 13.1645 31.2311 13.2448 30.9901C13.3251 30.749 13.4526 30.5264 13.62 30.3352C13.3871 30.0675 13.232 29.7411 13.1716 29.3914C13.1112 29.0417 13.1478 28.6822 13.2773 28.3518C9.12371 23.6687 8.46951 19.3385 9.70521 18.5078C8.66681 15.8495 8.23067 14.9253 9.28984 13.5235C8.07491 11.3013 8.99909 8.77799 9.69482 8.68453C9.2148 7.5626 9.18138 6.29971 9.60136 5.15396C9.80904 4.71783 10.1102 4.65553 10.6398 4.33363C10.7061 3.70306 10.8892 3.09036 11.1797 2.52681C11.8473 1.72269 12.7188 1.11295 13.703 0.761522C14.2649 0.905965 14.7868 1.17578 15.2295 1.55071C15.3022 1.69609 15.3645 1.85185 15.4268 2.00761C16.0274 1.4126 16.7553 0.961683 17.5555 0.688834C18.1198 0.835145 18.6447 1.10467 19.0924 1.47802C20.0581 3.6379 20.5669 6.31697 22.1141 8.55992C24.3571 11.8309 28.033 15.4964 30.0579 18.1963C30.1098 18.269 30.1617 18.352 30.224 18.4247C30.4265 20.6755 30.8473 22.9012 31.4805 25.0705C31.4805 20.9688 31.4805 17.6459 31.6985 17.376C32.0016 17.0268 32.2231 16.6145 32.3471 16.1691C32.471 15.7237 32.4942 15.2562 32.415 14.8007C32.0516 13.6169 30.1721 13.025 29.6529 12.3812C29.11 11.8378 28.6843 11.1889 28.4021 10.4745C28.1199 9.76005 27.9872 8.99535 28.0122 8.22763C28.0849 6.07814 28.7391 4.42708 30.494 3.52367C31.9789 2.76564 34.2634 2.77602 37.5344 3.1187C37.9397 2.16411 38.6253 1.35512 39.5005 0.798836C40.3757 0.242548 41.3993 -0.0348028 42.4356 0.00349291C43.5894 -0.0272281 44.7215 0.320538 45.659 0.993679C46.5965 1.66682 47.2879 2.62833 47.6276 3.73135C47.7211 4.08441 47.15 4.05326 47.0877 4.38555C47.1712 4.70062 47.2131 5.02529 47.2123 5.35126C47.1159 6.53675 46.5769 7.64254 45.7024 8.44877C44.828 9.255 43.6821 9.70262 42.4927 9.70262C41.3033 9.70262 40.1575 9.255 39.2831 8.44877C38.4086 7.64254 37.8696 6.53675 37.7732 5.35126C37.7776 5.00038 37.8265 4.65146 37.9186 4.31286C37.9186 4.13633 37.8563 4.16748 37.7005 4.10518C35.9106 3.76128 34.0773 3.7052 32.2697 3.93904C31.5349 4.07827 30.8559 4.4267 30.3144 4.94248C29.7728 5.45825 29.3917 6.11942 29.2168 6.84655C28.6456 9.14142 29.3206 10.3252 30.7951 11.2805C31.6179 11.8404 32.5119 12.2875 33.4535 12.6097C35.0837 13.1185 37.4825 13.212 38.9466 14.0427C39.8915 14.5826 39.6631 15.2472 40.6911 15.3926C41.2518 16.1091 42.6018 15.6522 43.3183 16.431C43.4636 16.5764 43.1106 16.9606 43.2352 17.1164C44.0036 18.0821 46.2569 18.5286 46.6308 19.6085C46.7138 19.837 46.6308 20.0654 46.2466 20.3769C46.2059 20.9726 45.9768 21.5399 45.5924 21.9968C43.1625 21.623 42.9756 21.7995 43.9517 23.1287C44.0844 23.2447 44.1877 23.3906 44.2528 23.5544C44.3151 23.7517 44.1282 23.8971 43.9102 23.9802C43.7813 24.2257 43.5789 24.4248 43.3312 24.5496C43.0836 24.6743 42.8031 24.7185 42.5291 24.6759C42.035 24.6963 41.5474 24.558 41.1376 24.2813C40.5561 23.6583 40.8261 24.9044 40.8053 25.0393C40.7534 25.4755 40.4211 25.9428 40.3796 26.327C40.7117 27.1421 40.9655 27.987 41.1376 28.8503C41.688 30.5533 41.8022 32.3497 42.3629 34.0423C43.2975 36.8252 44.5747 38.5282 43.0794 41.6953C43.0591 41.739 43.0348 41.7807 43.0067 41.8199C43.0368 42.1306 43.0853 42.4392 43.1521 42.7441C44.0971 45.7243 44.8343 51.934 46.6931 54.3015C47.6069 55.4645 50.8467 54.6338 51.5424 56.2122C51.9266 57.0844 50.909 57.5309 50.504 58.154H42.8095C42.3422 57.5102 42.3214 56.6898 41.9268 56.0772C40.525 53.855 39.715 51.4147 38.3755 49.151C37.9394 48.4034 37.0982 47.8011 36.7867 46.8146C36.7142 46.2636 36.6726 45.7089 36.6621 45.1532C34.8449 46.0358 34.4711 47.23 32.602 47.905C28.3741 49.2656 24.0627 50.3513 19.6946 51.1552C19.6946 51.1552 25.0839 44.8001 21.6364 44.2394C18.1889 43.6787 10.0271 46.1501 9.98558 46.1604C9.94405 46.1708 18.1682 44.0006 21.0965 44.7482C23.8482 45.4543 20.0581 50.0648 18.8224 51.0617C17.6166 52.0539 16.4787 53.1259 15.4164 54.2704C15.6864 54.3784 15.9799 54.4142 16.2679 54.3742C19.705 54.2496 23.8794 53.8031 26.9531 55.6618C28.2199 56.4198 27.1504 57.5621 26.3612 58.1644L1.42915 58.0501ZM17.4725 36.8356C18.0464 36.5481 18.5285 36.1057 18.8639 35.5584C18.3057 35.1437 17.8888 34.5672 17.6697 33.9073C17.5555 33.5335 17.6697 33.4192 17.6697 32.9727C17.4762 32.8074 17.3172 32.6055 17.2019 32.3786C17.0867 32.1517 17.0174 31.9042 16.9981 31.6504C16.9788 31.3966 17.0099 31.1415 17.0895 30.8998C17.1691 30.658 17.2957 30.4344 17.4621 30.2417C17.2312 29.9729 17.0775 29.6465 17.0171 29.2973C16.9568 28.9481 16.9921 28.5891 17.1194 28.2584C12.9658 23.5752 12.3116 19.2451 13.5473 18.4144C12.5089 15.756 12.0728 14.8319 13.1319 13.4404C11.917 11.2078 12.8412 8.69491 13.5473 8.59107C13.0586 7.47166 13.0214 6.2067 13.4434 5.0605C13.6511 4.63476 13.9626 4.56207 14.4818 4.25055C14.5069 3.91915 14.5697 3.59168 14.6688 3.27446L14.6065 3.13946C14.3261 2.82794 13.8796 2.10106 13.6407 2.10106C13.4019 2.10106 12.5297 2.77603 12.2389 3.27446C12.0318 3.77687 11.9498 4.3221 12.0001 4.86321C11.5639 5.14358 11.242 5.27857 11.0551 5.66278C10.552 6.72558 10.4416 7.93228 10.7436 9.06873C10.131 9.15181 9.37292 13.3366 10.4529 15.2992C9.50792 16.5348 9.68444 16.6802 10.6398 19.0374C9.53906 19.7747 10.7125 24.1567 14.3884 28.3207C14.2271 28.6106 14.1348 28.9338 14.1186 29.2651C14.1024 29.5965 14.1627 29.9271 14.2949 30.2314C14.148 30.4023 14.0363 30.6007 13.9662 30.8149C13.896 31.0291 13.8689 31.2551 13.8862 31.4799C13.9036 31.7047 13.9652 31.9238 14.0674 32.1247C14.1696 32.3257 14.3104 32.5044 14.4818 32.6508C14.4818 33.0558 14.3988 33.1493 14.4818 33.4816C14.675 34.0647 15.0363 34.5777 15.5203 34.9561C15.9426 35.7832 16.6299 36.4449 17.4725 36.8356ZM45.7585 4.20901H39.1958C38.9466 4.66591 38.8012 4.20902 38.8012 5.40318C38.871 6.33037 39.2885 7.19696 39.9702 7.82929C40.6519 8.46163 41.5474 8.81301 42.4772 8.81301C43.407 8.81301 44.3024 8.46163 44.9841 7.82929C45.6658 7.19696 46.0834 6.33037 46.1531 5.40318C46.1531 4.17786 46.0077 4.66591 45.7585 4.20901Z" fill="#0E5A67"/>
</svg>
